<svg width="18" height="18" viewBox="0 0 18 18" fill="none" xmlns="http://www.w3.org/2000/svg">
<path d="M15.8192 5.23514C15.1817 4.53014 14.1167 4.17764 12.5717 4.17764H12.3917V4.14764C12.3917 2.88764 12.3917 1.32764 9.57174 1.32764H8.43174C5.61174 1.32764 5.61174 2.89514 5.61174 4.14764V4.18514H5.43174C3.87924 4.18514 2.82174 4.53764 2.18424 5.24264C1.44174 6.06764 1.46424 7.17764 1.53924 7.93514L1.54674 7.98764L1.62174 8.77514C1.62924 8.78264 1.64424 8.79764 1.65924 8.80514C1.90674 8.97014 2.16174 9.13514 2.43174 9.28514C2.53674 9.35264 2.64924 9.41264 2.76174 9.47264C4.04424 10.1776 5.45424 10.6501 6.88674 10.8826C6.95424 11.5876 7.26174 12.4126 8.90424 12.4126C10.5467 12.4126 10.8692 11.5951 10.9217 10.8676C12.4517 10.6201 13.9292 10.0876 15.2642 9.30764C15.3092 9.28514 15.3392 9.26264 15.3767 9.24014C15.7217 9.04514 16.0442 8.83514 16.3592 8.60264C16.3742 8.59514 16.3892 8.58014 16.3967 8.56514L16.4267 8.29514L16.4642 7.94264C16.4717 7.89764 16.4717 7.86014 16.4792 7.80764C16.5392 7.05014 16.5242 6.01514 15.8192 5.23514ZM9.81924 10.3726C9.81924 11.1676 9.81924 11.2876 8.89674 11.2876C7.97424 11.2876 7.97424 11.1451 7.97424 10.3801V9.43514H9.81924V10.3726ZM6.68424 4.17764V4.14764C6.68424 2.87264 6.68424 2.40014 8.43174 2.40014H9.57174C11.3192 2.40014 11.3192 2.88014 11.3192 4.14764V4.18514H6.68424V4.17764Z" fill="#60A812"/>
<path opacity="0.4" d="M15.3761 9.22481C15.3386 9.24731 15.3011 9.26981 15.2636 9.29231C13.9286 10.0723 12.4511 10.5973 10.9211 10.8523C10.8611 11.5723 10.5461 12.3973 8.90359 12.3973C7.26109 12.3973 6.94609 11.5798 6.88609 10.8673C5.45359 10.6423 4.04359 10.1698 2.76109 9.4573C2.64859 9.3973 2.53609 9.3373 2.43109 9.2698C2.16109 9.1198 1.90609 8.95481 1.65859 8.78981C1.64359 8.78231 1.62859 8.76731 1.62109 8.75981L2.07859 13.6423C2.23609 15.1348 2.85109 16.6723 6.15109 16.6723H11.8661C15.1661 16.6723 15.7811 15.1348 15.9386 13.6348L16.4111 8.5498C16.4036 8.5648 16.3886 8.5798 16.3736 8.5873C16.0511 8.8198 15.7211 9.03731 15.3761 9.22481Z" fill="#60A812"/>
</svg>
