<svg width="42" height="42" viewBox="0 0 42 42" fill="none" xmlns="http://www.w3.org/2000/svg">
<path d="M29.3129 6.23V3.5C29.3129 2.7825 28.7179 2.1875 28.0004 2.1875C27.2829 2.1875 26.6879 2.7825 26.6879 3.5V6.125H15.3129V3.5C15.3129 2.7825 14.7179 2.1875 14.0004 2.1875C13.2829 2.1875 12.6879 2.7825 12.6879 3.5V6.23C7.9629 6.6675 5.6704 9.485 5.3204 13.6675C5.2854 14.175 5.7054 14.595 6.1954 14.595H35.8054C36.3129 14.595 36.7329 14.1575 36.6804 13.6675C36.3304 9.485 34.0379 6.6675 29.3129 6.23Z" fill="#048DC3"/>
<path opacity="0.4" d="M36.75 18.9702V22.0151C36.75 23.0826 35.805 23.9052 34.755 23.7302C34.265 23.6602 33.7575 23.6076 33.25 23.6076C27.9475 23.6076 23.625 27.9301 23.625 33.2326C23.625 34.0376 23.94 35.1577 24.2725 36.1727C24.6575 37.3102 23.8175 38.4826 22.61 38.4826H14C7.875 38.4826 5.25 34.9826 5.25 29.7326V18.9526C5.25 17.9901 6.0375 17.2026 7 17.2026H35C35.9625 17.2201 36.75 18.0077 36.75 18.9702Z" fill="#048DC3"/>
<path d="M33.25 26.25C29.3825 26.25 26.25 29.3825 26.25 33.25C26.25 34.5625 26.6175 35.805 27.265 36.855C28.4725 38.885 30.695 40.25 33.25 40.25C35.805 40.25 38.0275 38.885 39.235 36.855C39.8825 35.805 40.25 34.5625 40.25 33.25C40.25 29.3825 37.1175 26.25 33.25 26.25ZM36.8725 32.4975L33.145 35.945C32.9 36.1725 32.5675 36.295 32.2525 36.295C31.92 36.295 31.5875 36.1725 31.325 35.91L29.5925 34.1775C29.085 33.67 29.085 32.83 29.5925 32.3225C30.1 31.815 30.94 31.815 31.4475 32.3225L32.2875 33.1625L35.0875 30.5725C35.6125 30.0825 36.4525 30.1175 36.9425 30.6425C37.4325 31.1675 37.3975 31.99 36.8725 32.4975Z" fill="#048DC3"/>
<path d="M14.875 26.2501C14.42 26.2501 13.965 26.0576 13.6325 25.7426C13.3175 25.4101 13.125 24.9551 13.125 24.5001C13.125 24.0451 13.3175 23.5901 13.6325 23.2576C14.035 22.8551 14.6475 22.6626 15.225 22.7851C15.33 22.8026 15.435 22.8376 15.54 22.8901C15.645 22.9251 15.75 22.9776 15.855 23.0476C15.9425 23.1176 16.03 23.1876 16.1175 23.2576C16.4325 23.5901 16.625 24.0451 16.625 24.5001C16.625 24.9551 16.4325 25.4101 16.1175 25.7426C16.03 25.8126 15.9425 25.8826 15.855 25.9526C15.75 26.0226 15.645 26.0751 15.54 26.1101C15.435 26.1626 15.33 26.1976 15.225 26.2151C15.1025 26.2326 14.98 26.2501 14.875 26.2501Z" fill="#048DC3"/>
<path d="M21 26.2501C20.545 26.2501 20.09 26.0576 19.7575 25.7426C19.4425 25.4101 19.25 24.9551 19.25 24.5001C19.25 24.0451 19.4425 23.5901 19.7575 23.2576C20.4225 22.6101 21.595 22.6101 22.2425 23.2576C22.5575 23.5901 22.75 24.0451 22.75 24.5001C22.75 24.9551 22.5575 25.4101 22.2425 25.7426C21.91 26.0576 21.455 26.2501 21 26.2501Z" fill="#048DC3"/>
<path d="M14.875 32.375C14.42 32.375 13.965 32.1825 13.6325 31.8675C13.3175 31.535 13.125 31.08 13.125 30.625C13.125 30.17 13.3175 29.715 13.6325 29.3825C13.8075 29.225 13.9825 29.1025 14.21 29.015C14.8575 28.735 15.6275 28.8925 16.1175 29.3825C16.4325 29.715 16.625 30.17 16.625 30.625C16.625 31.08 16.4325 31.535 16.1175 31.8675C15.785 32.1825 15.33 32.375 14.875 32.375Z" fill="#048DC3"/>
</svg>
