<svg width="16" height="16" viewBox="0 0 16 16" fill="none" xmlns="http://www.w3.org/2000/svg">
<path d="M11.1671 2.37349V1.3335C11.1671 1.06016 10.9405 0.833496 10.6671 0.833496C10.3938 0.833496 10.1671 1.06016 10.1671 1.3335V2.3335H5.83381V1.3335C5.83381 1.06016 5.60714 0.833496 5.33381 0.833496C5.06048 0.833496 4.83381 1.06016 4.83381 1.3335V2.37349C3.03381 2.54016 2.16048 3.61349 2.02714 5.20683C2.01381 5.40016 2.17381 5.56016 2.36048 5.56016H13.6405C13.8338 5.56016 13.9938 5.39349 13.9738 5.20683C13.8405 3.61349 12.9671 2.54016 11.1671 2.37349Z" fill="#697D8F"/>
<path opacity="0.4" d="M13.3333 6.56006C13.7 6.56006 14 6.86006 14 7.22673V11.3334C14 13.3334 13 14.6667 10.6667 14.6667H5.33333C3 14.6667 2 13.3334 2 11.3334V7.22673C2 6.86006 2.3 6.56006 2.66667 6.56006H13.3333Z" fill="#697D8F"/>
<path d="M5.66667 10.0001C5.49333 10.0001 5.32 9.92674 5.19333 9.80674C5.07333 9.68007 5 9.50674 5 9.33341C5 9.16008 5.07333 8.98675 5.19333 8.86008C5.38 8.67342 5.67333 8.6134 5.92 8.72007C6.00667 8.7534 6.08 8.80008 6.14 8.86008C6.26 8.98675 6.33333 9.16008 6.33333 9.33341C6.33333 9.50674 6.26 9.68007 6.14 9.80674C6.01333 9.92674 5.84 10.0001 5.66667 10.0001Z" fill="#697D8F"/>
<path d="M8.00065 9.99959C7.82732 9.99959 7.65398 9.92625 7.52732 9.80625C7.40732 9.67958 7.33398 9.50626 7.33398 9.33292C7.33398 9.15959 7.40732 8.98626 7.52732 8.8596C7.58732 8.7996 7.66065 8.75291 7.74732 8.71958C7.99398 8.61291 8.28732 8.67293 8.47398 8.8596C8.59398 8.98626 8.66732 9.15959 8.66732 9.33292C8.66732 9.50626 8.59398 9.67958 8.47398 9.80625C8.44065 9.83292 8.40732 9.85958 8.37399 9.88625C8.33399 9.91291 8.29398 9.93293 8.25398 9.94627C8.21398 9.96627 8.17398 9.9796 8.13398 9.98626C8.08732 9.99293 8.04732 9.99959 8.00065 9.99959Z" fill="#697D8F"/>
<path d="M10.3327 10.0003C10.1593 10.0003 9.98602 9.92699 9.85935 9.80699C9.73935 9.68033 9.66602 9.507 9.66602 9.33367C9.66602 9.16033 9.73935 8.98701 9.85935 8.86034C9.92602 8.80034 9.99268 8.75366 10.0793 8.72032C10.1993 8.66699 10.3327 8.65366 10.466 8.68033C10.506 8.68699 10.546 8.70032 10.586 8.72032C10.626 8.73366 10.666 8.75368 10.706 8.78034C10.7393 8.80701 10.7727 8.83367 10.806 8.86034C10.926 8.98701 10.9993 9.16033 10.9993 9.33367C10.9993 9.507 10.926 9.68033 10.806 9.80699C10.7727 9.83366 10.7393 9.86032 10.706 9.88699C10.666 9.91366 10.626 9.93368 10.586 9.94701C10.546 9.96701 10.506 9.98034 10.466 9.98701C10.4193 9.99367 10.3727 10.0003 10.3327 10.0003Z" fill="#697D8F"/>
<path d="M5.66667 12.3333C5.58 12.3333 5.49333 12.3134 5.41333 12.28C5.32667 12.2467 5.26 12.2 5.19333 12.14C5.07333 12.0133 5 11.84 5 11.6667C5 11.4933 5.07333 11.32 5.19333 11.1933C5.26 11.1333 5.32667 11.0867 5.41333 11.0533C5.53333 11 5.66667 10.9867 5.8 11.0133C5.84 11.02 5.88 11.0333 5.92 11.0533C5.96 11.0667 6 11.0867 6.04 11.1134C6.07333 11.14 6.10667 11.1667 6.14 11.1933C6.26 11.32 6.33333 11.4933 6.33333 11.6667C6.33333 11.84 6.26 12.0133 6.14 12.14C6.10667 12.1667 6.07333 12.2 6.04 12.22C6 12.2467 5.96 12.2667 5.92 12.28C5.88 12.3 5.84 12.3133 5.8 12.32C5.75333 12.3267 5.71333 12.3333 5.66667 12.3333Z" fill="#697D8F"/>
<path d="M8.00065 12.3338C7.82732 12.3338 7.65398 12.2604 7.52732 12.1404C7.40732 12.0138 7.33398 11.8405 7.33398 11.6671C7.33398 11.4938 7.40732 11.3205 7.52732 11.1938C7.77398 10.9471 8.22732 10.9471 8.47398 11.1938C8.59398 11.3205 8.66732 11.4938 8.66732 11.6671C8.66732 11.8405 8.59398 12.0138 8.47398 12.1404C8.34732 12.2604 8.17398 12.3338 8.00065 12.3338Z" fill="#697D8F"/>
<path d="M10.3327 12.3338C10.1593 12.3338 9.98602 12.2604 9.85935 12.1404C9.73935 12.0138 9.66602 11.8405 9.66602 11.6671C9.66602 11.4938 9.73935 11.3205 9.85935 11.1938C10.106 10.9471 10.5593 10.9471 10.806 11.1938C10.926 11.3205 10.9993 11.4938 10.9993 11.6671C10.9993 11.8405 10.926 12.0138 10.806 12.1404C10.6793 12.2604 10.506 12.3338 10.3327 12.3338Z" fill="#697D8F"/>
</svg>
