<svg width="19" height="19" viewBox="0 0 19 19" fill="none" xmlns="http://www.w3.org/2000/svg">
<path d="M13.2609 2.81849V1.5835C13.2609 1.25891 12.9918 0.989746 12.6672 0.989746C12.3426 0.989746 12.0734 1.25891 12.0734 1.5835V2.771H6.92759V1.5835C6.92759 1.25891 6.65842 0.989746 6.33384 0.989746C6.00926 0.989746 5.74009 1.25891 5.74009 1.5835V2.81849C3.60259 3.01641 2.56551 4.29099 2.40717 6.18308C2.39134 6.41266 2.58134 6.60266 2.80301 6.60266H16.198C16.4276 6.60266 16.6176 6.40474 16.5938 6.18308C16.4355 4.29099 15.3984 3.01641 13.2609 2.81849Z" fill="#667789"/>
<path opacity="0.4" d="M15.8333 7.79004C16.2688 7.79004 16.625 8.14629 16.625 8.58171V13.4584C16.625 15.8334 15.4375 17.4167 12.6667 17.4167H6.33333C3.5625 17.4167 2.375 15.8334 2.375 13.4584V8.58171C2.375 8.14629 2.73125 7.79004 3.16667 7.79004H15.8333Z" fill="#667789"/>
<path d="M6.72917 11.8749C6.52333 11.8749 6.3175 11.7878 6.16708 11.6453C6.02458 11.4949 5.9375 11.2891 5.9375 11.0833C5.9375 10.8774 6.02458 10.6716 6.16708 10.5212C6.38875 10.2995 6.73708 10.2283 7.03 10.3549C7.13292 10.3945 7.22 10.4499 7.29125 10.5212C7.43375 10.6716 7.52083 10.8774 7.52083 11.0833C7.52083 11.2891 7.43375 11.4949 7.29125 11.6453C7.14083 11.7878 6.935 11.8749 6.72917 11.8749Z" fill="#667789"/>
<path d="M9.4987 11.8749C9.29286 11.8749 9.08703 11.7878 8.93662 11.6453C8.79412 11.4949 8.70703 11.2891 8.70703 11.0833C8.70703 10.8774 8.79412 10.6716 8.93662 10.5212C9.00787 10.4499 9.09495 10.3945 9.19786 10.3549C9.49078 10.2283 9.83911 10.2995 10.0608 10.5212C10.2033 10.6716 10.2904 10.8774 10.2904 11.0833C10.2904 11.2891 10.2033 11.4949 10.0608 11.6453C10.0212 11.677 9.98162 11.7087 9.94203 11.7403C9.89453 11.772 9.84703 11.7958 9.79953 11.8116C9.75203 11.8354 9.70453 11.8512 9.65703 11.8591C9.60162 11.867 9.55411 11.8749 9.4987 11.8749Z" fill="#667789"/>
<path d="M12.2721 11.8748C12.0663 11.8748 11.8605 11.7878 11.7101 11.6453C11.5676 11.4948 11.4805 11.289 11.4805 11.0832C11.4805 10.8773 11.5676 10.6715 11.7101 10.5211C11.7892 10.4499 11.8684 10.3944 11.9713 10.3548C12.1138 10.2915 12.2721 10.2757 12.4305 10.3073C12.478 10.3153 12.5255 10.3311 12.573 10.3548C12.6205 10.3707 12.668 10.3944 12.7155 10.4261C12.7551 10.4578 12.7946 10.4894 12.8342 10.5211C12.9767 10.6715 13.0638 10.8773 13.0638 11.0832C13.0638 11.289 12.9767 11.4948 12.8342 11.6453C12.7946 11.6769 12.7551 11.7086 12.7155 11.7403C12.668 11.7719 12.6205 11.7957 12.573 11.8115C12.5255 11.8353 12.478 11.8511 12.4305 11.859C12.3751 11.8669 12.3196 11.8748 12.2721 11.8748Z" fill="#667789"/>
<path d="M6.72917 14.6458C6.62625 14.6458 6.52333 14.6221 6.42833 14.5825C6.32542 14.5429 6.24625 14.4875 6.16708 14.4163C6.02458 14.2658 5.9375 14.06 5.9375 13.8542C5.9375 13.6483 6.02458 13.4425 6.16708 13.2921C6.24625 13.2208 6.32542 13.1654 6.42833 13.1258C6.57083 13.0625 6.72917 13.0467 6.8875 13.0783C6.935 13.0863 6.9825 13.1021 7.03 13.1258C7.0775 13.1417 7.125 13.1654 7.1725 13.1971C7.21208 13.2288 7.25167 13.2604 7.29125 13.2921C7.43375 13.4425 7.52083 13.6483 7.52083 13.8542C7.52083 14.06 7.43375 14.2658 7.29125 14.4163C7.25167 14.4479 7.21208 14.4875 7.1725 14.5112C7.125 14.5429 7.0775 14.5667 7.03 14.5825C6.9825 14.6063 6.935 14.6221 6.8875 14.63C6.83208 14.6379 6.78458 14.6458 6.72917 14.6458Z" fill="#667789"/>
<path d="M9.4987 14.6457C9.29286 14.6457 9.08703 14.5586 8.93662 14.4161C8.79412 14.2657 8.70703 14.0599 8.70703 13.854C8.70703 13.6482 8.79412 13.4424 8.93662 13.292C9.22953 12.999 9.76786 12.999 10.0608 13.292C10.2033 13.4424 10.2904 13.6482 10.2904 13.854C10.2904 14.0599 10.2033 14.2657 10.0608 14.4161C9.91036 14.5586 9.70453 14.6457 9.4987 14.6457Z" fill="#667789"/>
<path d="M12.2721 14.6457C12.0663 14.6457 11.8605 14.5586 11.7101 14.4161C11.5676 14.2657 11.4805 14.0599 11.4805 13.854C11.4805 13.6482 11.5676 13.4424 11.7101 13.292C12.003 12.999 12.5413 12.999 12.8342 13.292C12.9767 13.4424 13.0638 13.6482 13.0638 13.854C13.0638 14.0599 12.9767 14.2657 12.8342 14.4161C12.6838 14.5586 12.478 14.6457 12.2721 14.6457Z" fill="#667789"/>
</svg>
