<svg width="16" height="16" viewBox="0 0 16 16" fill="none" xmlns="http://www.w3.org/2000/svg">
<path d="M11.7468 7.16673C11.4602 7.16673 11.2335 6.9334 11.2335 6.6534C11.2335 6.40673 10.9868 5.8934 10.5735 5.44673C10.1668 5.0134 9.72016 4.76007 9.34683 4.76007C9.06016 4.76007 8.8335 4.52673 8.8335 4.24673C8.8335 3.96673 9.06683 3.7334 9.34683 3.7334C10.0135 3.7334 10.7135 4.0934 11.3268 4.74007C11.9002 5.34673 12.2668 6.10007 12.2668 6.64673C12.2668 6.9334 12.0335 7.16673 11.7468 7.16673Z" fill="#667789"/>
<path d="M14.1532 7.16683C13.8665 7.16683 13.6398 6.9335 13.6398 6.6535C13.6398 4.28683 11.7132 2.36683 9.35318 2.36683C9.06651 2.36683 8.83984 2.1335 8.83984 1.8535C8.83984 1.5735 9.06651 1.3335 9.34651 1.3335C12.2798 1.3335 14.6665 3.72016 14.6665 6.6535C14.6665 6.9335 14.4332 7.16683 14.1532 7.16683Z" fill="#667789"/>
<path opacity="0.4" d="M7.86016 9.4735L5.68016 11.6535C5.44016 11.4402 5.20683 11.2202 4.98016 10.9935C4.2935 10.3002 3.6735 9.5735 3.12016 8.8135C2.5735 8.0535 2.1335 7.2935 1.8135 6.54016C1.4935 5.78016 1.3335 5.0535 1.3335 4.36016C1.3335 3.90683 1.4135 3.4735 1.5735 3.0735C1.7335 2.66683 1.98683 2.2935 2.34016 1.96016C2.76683 1.54016 3.2335 1.3335 3.72683 1.3335C3.9135 1.3335 4.10016 1.3735 4.26683 1.4535C4.44016 1.5335 4.5935 1.6535 4.7135 1.82683L6.26016 4.00683C6.38016 4.1735 6.46683 4.32683 6.52683 4.4735C6.58683 4.6135 6.62016 4.7535 6.62016 4.88016C6.62016 5.04016 6.5735 5.20016 6.48016 5.3535C6.3935 5.50683 6.26683 5.66683 6.10683 5.82683L5.60016 6.3535C5.52683 6.42683 5.4935 6.5135 5.4935 6.62016C5.4935 6.6735 5.50016 6.72016 5.5135 6.7735C5.5335 6.82683 5.5535 6.86683 5.56683 6.90683C5.68683 7.12683 5.8935 7.4135 6.18683 7.76016C6.48683 8.10683 6.80683 8.46016 7.1535 8.8135C7.3935 9.04683 7.62683 9.2735 7.86016 9.4735Z" fill="#667789"/>
<path d="M14.6466 12.2199C14.6466 12.4065 14.6132 12.5999 14.5466 12.7865C14.5266 12.8399 14.5066 12.8932 14.4799 12.9465C14.3666 13.1865 14.2199 13.4132 14.0266 13.6265C13.6999 13.9865 13.3399 14.2465 12.9332 14.4132C12.9266 14.4132 12.9199 14.4199 12.9132 14.4199C12.5199 14.5799 12.0932 14.6665 11.6332 14.6665C10.9532 14.6665 10.2266 14.5065 9.4599 14.1799C8.69324 13.8532 7.92657 13.4132 7.16657 12.8599C6.90657 12.6665 6.64657 12.4732 6.3999 12.2665L8.5799 10.0865C8.76657 10.2265 8.93324 10.3332 9.07324 10.4065C9.10657 10.4199 9.14657 10.4399 9.19324 10.4599C9.24657 10.4799 9.2999 10.4865 9.3599 10.4865C9.47324 10.4865 9.5599 10.4465 9.63324 10.3732L10.1399 9.8732C10.3066 9.70653 10.4666 9.57986 10.6199 9.49986C10.7732 9.40653 10.9266 9.35986 11.0932 9.35986C11.2199 9.35986 11.3532 9.38653 11.4999 9.44653C11.6466 9.50653 11.7999 9.5932 11.9666 9.70653L14.1732 11.2732C14.3466 11.3932 14.4666 11.5332 14.5399 11.6999C14.6066 11.8665 14.6466 12.0332 14.6466 12.2199Z" fill="#667789"/>
</svg>
