<svg width="16" height="16" viewBox="0 0 16 16" fill="none" xmlns="http://www.w3.org/2000/svg">
<path d="M11.7454 7.16673C11.4587 7.16673 11.232 6.9334 11.232 6.6534C11.232 6.40673 10.9854 5.8934 10.572 5.44673C10.1654 5.0134 9.7187 4.76007 9.34536 4.76007C9.0587 4.76007 8.83203 4.52673 8.83203 4.24673C8.83203 3.96673 9.06536 3.7334 9.34536 3.7334C10.012 3.7334 10.712 4.0934 11.3254 4.74007C11.8987 5.34673 12.2654 6.10007 12.2654 6.64673C12.2654 6.9334 12.032 7.16673 11.7454 7.16673Z" fill="#60A812"/>
<path d="M14.1532 7.16683C13.8665 7.16683 13.6398 6.9335 13.6398 6.6535C13.6398 4.28683 11.7132 2.36683 9.35318 2.36683C9.06651 2.36683 8.83984 2.1335 8.83984 1.8535C8.83984 1.5735 9.06651 1.3335 9.34651 1.3335C12.2798 1.3335 14.6665 3.72016 14.6665 6.6535C14.6665 6.9335 14.4332 7.16683 14.1532 7.16683Z" fill="#60A812"/>
<path opacity="0.4" d="M7.8587 9.4735L5.6787 11.6535C5.4387 11.4402 5.20536 11.2202 4.9787 10.9935C4.29203 10.3002 3.67203 9.5735 3.1187 8.8135C2.57203 8.0535 2.13203 7.2935 1.81203 6.54016C1.49203 5.78016 1.33203 5.0535 1.33203 4.36016C1.33203 3.90683 1.41203 3.4735 1.57203 3.0735C1.73203 2.66683 1.98536 2.2935 2.3387 1.96016C2.76536 1.54016 3.23203 1.3335 3.72536 1.3335C3.91203 1.3335 4.0987 1.3735 4.26536 1.4535C4.4387 1.5335 4.59203 1.6535 4.71203 1.82683L6.2587 4.00683C6.3787 4.1735 6.46536 4.32683 6.52536 4.4735C6.58536 4.6135 6.6187 4.7535 6.6187 4.88016C6.6187 5.04016 6.57203 5.20016 6.4787 5.3535C6.39203 5.50683 6.26536 5.66683 6.10536 5.82683L5.5987 6.3535C5.52536 6.42683 5.49203 6.5135 5.49203 6.62016C5.49203 6.6735 5.4987 6.72016 5.51203 6.7735C5.53203 6.82683 5.55203 6.86683 5.56536 6.90683C5.68537 7.12683 5.89203 7.4135 6.18536 7.76016C6.48536 8.10683 6.80536 8.46016 7.15203 8.8135C7.39203 9.04683 7.62536 9.2735 7.8587 9.4735Z" fill="#60A812"/>
<path d="M14.6451 12.2199C14.6451 12.4065 14.6118 12.5999 14.5451 12.7865C14.5251 12.8399 14.5051 12.8932 14.4784 12.9465C14.3651 13.1865 14.2184 13.4132 14.0251 13.6265C13.6984 13.9865 13.3384 14.2465 12.9318 14.4132C12.9251 14.4132 12.9184 14.4199 12.9118 14.4199C12.5184 14.5799 12.0918 14.6665 11.6318 14.6665C10.9518 14.6665 10.2251 14.5065 9.45844 14.1799C8.69177 13.8532 7.9251 13.4132 7.1651 12.8599C6.9051 12.6665 6.6451 12.4732 6.39844 12.2665L8.57844 10.0865C8.7651 10.2265 8.93177 10.3332 9.07177 10.4065C9.1051 10.4199 9.1451 10.4399 9.19177 10.4599C9.2451 10.4799 9.29844 10.4865 9.35844 10.4865C9.47177 10.4865 9.55844 10.4465 9.63177 10.3732L10.1384 9.8732C10.3051 9.70653 10.4651 9.57986 10.6184 9.49986C10.7718 9.40653 10.9251 9.35986 11.0918 9.35986C11.2184 9.35986 11.3518 9.38653 11.4984 9.44653C11.6451 9.50653 11.7984 9.5932 11.9651 9.70653L14.1718 11.2732C14.3451 11.3932 14.4651 11.5332 14.5384 11.6999C14.6051 11.8665 14.6451 12.0332 14.6451 12.2199Z" fill="#60A812"/>
</svg>
