<svg width="39" height="12" viewBox="0 0 39 12" fill="none" xmlns="http://www.w3.org/2000/svg">
<path d="M28.3507 0.491536C27.4443 0.159947 26.4863 -0.00644699 25.5217 0.000191047C22.4021 0.000191047 20.199 1.57798 20.1834 3.84287C20.1639 5.50679 21.749 6.44446 22.9481 7.0004C24.1783 7.57201 24.5897 7.9322 24.5858 8.44312C24.578 9.22027 23.6032 9.57263 22.6965 9.57263C21.4507 9.57263 20.7702 9.39841 19.7232 8.96187L19.3352 8.77982L18.8927 11.3873C19.6511 11.7044 21.0178 11.9765 22.4294 12C25.7459 12 27.914 10.432 27.9393 8.02225C27.9666 6.69307 27.1087 5.68884 25.3033 4.85884C24.2056 4.32051 23.5252 3.96032 23.5252 3.41417C23.5252 2.93065 24.1081 2.41386 25.3267 2.41386C26.1377 2.39415 26.9437 2.54693 27.6917 2.86214L27.9842 2.99329L28.4267 0.473919L28.3507 0.491536ZM36.4459 0.211607H34.0088C33.2503 0.211607 32.6791 0.421065 32.3476 1.17668L27.6605 11.8375H30.977L31.6399 10.0894L35.6874 10.0933C35.783 10.5025 36.0754 11.8375 36.0754 11.8375H39L36.4459 0.211607ZM15.6971 0.113728H18.8576L16.8806 11.7455H13.724L15.6971 0.109814V0.113728ZM7.67405 6.52472L8.0016 8.1397L11.0899 0.211607H14.4376L9.46388 11.8219H6.12403L3.39444 1.99102C3.35023 1.82892 3.24641 1.6897 3.10393 1.60147C2.12011 1.09121 1.07769 0.703986 0 0.448469L0.0428935 0.203775H5.12968C5.81988 0.231181 6.37554 0.44847 6.56077 1.18843L7.6721 6.53059L7.67405 6.52472ZM32.5465 7.711L33.806 4.45754C33.7904 4.49278 34.0653 3.7861 34.2252 3.34957L34.4416 4.35379L35.1727 7.70904H32.5445L32.5465 7.711Z" fill="#174DBA"/>
</svg>
