<svg width="56" height="56" viewBox="0 0 56 56" fill="none" xmlns="http://www.w3.org/2000/svg">
<path d="M54.308 14.2034C52.838 8.79266 47.2106 3.16422 41.7988 1.69422C38.4803 0.867344 34.0353 0.0153125 28 0C21.9669 0.0153125 17.5219 0.867344 14.2034 1.69422C8.79266 3.16422 3.16422 8.79156 1.69422 14.2034C0.867344 17.5208 0.0153125 21.9669 0 28C0.0142187 34.0342 0.86625 38.4792 1.69313 41.7977C3.16312 47.2095 8.79156 52.8369 14.2023 54.3069C17.5208 55.1337 21.968 55.9858 28 56C34.0331 55.9858 38.4792 55.1337 41.7977 54.3069C47.2095 52.8369 52.8369 47.2095 54.3069 41.7977C55.1337 38.4792 55.9858 34.032 56.0011 28C55.9869 21.9669 55.1348 17.5219 54.308 14.2034Z" fill="#E5F4D9"/>
<path d="M40.9194 17.9145C40.2546 17.3037 39.3681 16.9753 38.4548 17.0015C37.5416 17.0276 36.6763 17.4062 36.0494 18.0539L24.7939 29.6848L20.0111 24.4889C19.7087 24.1607 19.3429 23.8937 18.9347 23.7033C18.5264 23.5128 18.0837 23.4026 17.6318 23.3789C16.719 23.331 15.8241 23.6385 15.144 24.2336C14.4638 24.8288 14.0541 25.6629 14.005 26.5525C13.9559 27.4421 14.2713 28.3142 14.882 28.9771L22.1665 36.8908C22.4853 37.2356 22.8741 37.5122 23.3082 37.7031C23.7423 37.894 24.2124 37.9951 24.6886 38H24.7322C25.2016 38 25.6661 37.9064 26.0971 37.7252C26.5281 37.544 26.9166 37.2789 27.2387 36.9461L41.0625 22.6592C41.6887 22.0113 42.0253 21.1476 41.9985 20.258C41.9717 19.3683 41.5836 18.5254 40.9194 17.9145Z" fill="url(#paint0_linear_713_12980)"/>
<defs>
<linearGradient id="paint0_linear_713_12980" x1="34.2888" y1="30.0791" x2="22.0376" y2="17.5087" gradientUnits="userSpaceOnUse">
<stop stop-color="#13B601"/>
<stop offset="0.57" stop-color="#13B601"/>
<stop offset="1" stop-color="#CBF4B4"/>
</linearGradient>
</defs>
</svg>
