<svg width="17" height="17" viewBox="0 0 17 17" fill="none" xmlns="http://www.w3.org/2000/svg">
<path opacity="0.4" d="M8.5013 15.5837C12.4133 15.5837 15.5846 12.4123 15.5846 8.50033C15.5846 4.58831 12.4133 1.41699 8.5013 1.41699C4.58929 1.41699 1.41797 4.58831 1.41797 8.50033C1.41797 12.4123 4.58929 15.5837 8.5013 15.5837Z" fill="#60A812"/>
<path d="M11.129 11.2835C11.0369 11.2835 10.9448 11.2623 10.8598 11.2056L8.66401 9.89517C8.11859 9.56934 7.71484 8.85392 7.71484 8.2235V5.31934C7.71484 5.02892 7.95568 4.78809 8.24609 4.78809C8.53651 4.78809 8.77734 5.02892 8.77734 5.31934V8.2235C8.77734 8.4785 8.98984 8.85392 9.20943 8.98142L11.4053 10.2918C11.6603 10.4406 11.7382 10.7664 11.5894 11.0214C11.4832 11.1914 11.3061 11.2835 11.129 11.2835Z" fill="#60A812"/>
</svg>
