<svg width="17" height="17" viewBox="0 0 17 17" fill="none" xmlns="http://www.w3.org/2000/svg">
<path opacity="0.4" d="M8.5013 15.5832C12.4133 15.5832 15.5846 12.4119 15.5846 8.49984C15.5846 4.58782 12.4133 1.4165 8.5013 1.4165C4.58929 1.4165 1.41797 4.58782 1.41797 8.49984C1.41797 12.4119 4.58929 15.5832 8.5013 15.5832Z" fill="#60A812"/>
<path d="M11.129 11.284C11.0369 11.284 10.9448 11.2627 10.8598 11.2061L8.66401 9.89566C8.11859 9.56982 7.71484 8.85441 7.71484 8.22399V5.31982C7.71484 5.02941 7.95568 4.78857 8.24609 4.78857C8.53651 4.78857 8.77734 5.02941 8.77734 5.31982V8.22399C8.77734 8.47899 8.98984 8.85441 9.20943 8.98191L11.4053 10.2923C11.6603 10.4411 11.7382 10.7669 11.5894 11.0219C11.4832 11.1919 11.3061 11.284 11.129 11.284Z" fill="#60A812"/>
</svg>
