<svg width="15" height="15" viewBox="0 0 15 15" fill="none" xmlns="http://www.w3.org/2000/svg">
<path d="M14.4403 5.36016C14.0728 4.77504 13.6527 4.24994 13.2176 3.77734L10.3895 6.60541C10.4795 6.88296 10.532 7.18302 10.532 7.49809C10.532 9.17842 9.17427 10.5287 7.50144 10.5287C7.18638 10.5287 6.88632 10.4762 6.60876 10.3862L4.01324 12.9817C5.10846 13.5968 6.2937 13.9194 7.50144 13.9194C8.83671 13.9194 10.1345 13.5293 11.3197 12.8016C12.5049 12.0665 13.5702 10.9938 14.4403 9.62851C15.1905 8.45828 15.1905 6.53789 14.4403 5.36016Z" fill="#BAC1C8"/>
<path d="M9.01681 5.98266L5.9862 9.01327C5.60363 8.62319 5.35608 8.08308 5.35608 7.49797C5.35608 6.32023 6.31627 5.35254 7.50151 5.35254C8.08662 5.35254 8.62673 5.60009 9.01681 5.98266Z" fill="#667789"/>
<path d="M12.1899 2.80968L9.64692 5.35269C9.09932 4.79758 8.34167 4.46751 7.5015 4.46751C5.82116 4.46751 4.47089 5.82528 4.47089 7.49812C4.47089 8.33829 4.80846 9.09594 5.35607 9.64355L2.82056 12.1866H2.81306C1.9804 11.5114 1.21524 10.6487 0.562612 9.62854C-0.187537 8.45081 -0.187537 6.53793 0.562612 5.36019C1.43279 3.99492 2.498 2.92221 3.68323 2.18706C4.86847 1.46692 6.16623 1.06934 7.5015 1.06934C9.17433 1.06934 10.7947 1.68446 12.1899 2.80968Z" fill="#BAC1C8"/>
<path d="M9.64685 7.49862C9.64685 8.67635 8.68666 9.64405 7.50143 9.64405C7.45642 9.64405 7.41891 9.64405 7.3739 9.62904L9.63185 7.37109C9.64686 7.4161 9.64685 7.45361 9.64685 7.49862Z" fill="#667789"/>
<path d="M14.8305 0.169272C14.6054 -0.0557729 14.2379 -0.0557729 14.0128 0.169272L0.172568 14.017C-0.0524771 14.2421 -0.0524771 14.6097 0.172568 14.8347C0.28509 14.9397 0.427619 14.9997 0.577649 14.9997C0.727679 14.9997 0.870207 14.9397 0.98273 14.8272L14.8305 0.979434C15.063 0.754389 15.063 0.394317 14.8305 0.169272Z" fill="#667789"/>
</svg>
