<svg width="26" height="19" viewBox="0 0 26 19" fill="none" xmlns="http://www.w3.org/2000/svg">
<path d="M19.782 0C16.1715 0 13.5648 2.94713 13.5648 7.31139C13.5874 13.6516 18.4085 18.1343 25.3639 18.9949C26.0082 19.0753 26.2569 18.1902 25.6634 17.9298C22.9957 16.7563 21.6471 15.2676 21.473 13.7946C21.343 12.6938 21.9478 11.7293 22.7086 11.5482C24.6788 11.08 25.9991 8.65363 25.9991 6.14684C25.9991 4.5166 25.3441 2.95312 24.1782 1.80037C23.0122 0.647612 21.4309 0 19.782 0ZM6.21719 0C2.6067 0 0 2.94713 0 7.31139C0.0226078 13.6516 4.84375 18.1343 11.7991 18.9949C12.4434 19.0753 12.6921 18.1902 12.0986 17.9298C9.43091 16.7563 8.08234 15.2676 7.90826 13.7946C7.77827 12.6938 8.38303 11.7293 9.14379 11.5482C11.1141 11.08 12.4344 8.65363 12.4344 6.14684C12.4344 4.5166 11.7794 2.95312 10.6134 1.80037C9.44745 0.647612 7.86609 0 6.21719 0Z" fill="#619752"/>
</svg>
