<svg width="12" height="11" viewBox="0 0 12 11" fill="none" xmlns="http://www.w3.org/2000/svg">
<path d="M11.4362 1.15634L7.14656 5.44951L11.4362 9.74268C11.564 9.8708 11.6358 10.0445 11.6356 10.2256C11.6355 10.4066 11.5635 10.5802 11.4355 10.7082C11.3721 10.7715 11.2969 10.8218 11.2141 10.856C11.1313 10.8903 11.0426 10.9078 10.953 10.9078C10.7721 10.9077 10.5987 10.8356 10.4708 10.7075L6.18118 6.41431L1.89155 10.7075C1.8284 10.7714 1.75323 10.8221 1.67037 10.8567C1.58752 10.8913 1.49864 10.9091 1.40886 10.9091C1.31908 10.9091 1.2302 10.8913 1.14734 10.8567C1.06449 10.8221 0.989317 10.7714 0.926172 10.7075C0.798362 10.5795 0.726562 10.406 0.726562 10.2251C0.726562 10.0442 0.798362 9.87064 0.926172 9.74268L5.21581 5.44951L0.926172 1.15634C0.801984 1.02765 0.733267 0.855295 0.73482 0.676392C0.736373 0.49749 0.808074 0.326355 0.934478 0.199847C1.06088 0.0733387 1.23188 0.00158041 1.41063 2.57937e-05C1.58939 -0.00152882 1.7616 0.0672451 1.89018 0.191536L6.17982 4.48471L10.4695 0.191536C10.598 0.0672451 10.7703 -0.00152882 10.949 2.57937e-05C11.1278 0.00158041 11.2988 0.0733387 11.4252 0.199847C11.5516 0.326355 11.6233 0.49749 11.6248 0.676392C11.6264 0.855295 11.5577 1.02765 11.4335 1.15634H11.4362Z" fill="#FF886A"/>
</svg>
