<svg width="55" height="50" viewBox="0 0 55 50" fill="none" xmlns="http://www.w3.org/2000/svg">
<path opacity="0.4" d="M52.3063 35.4635L36.0396 6.1835C33.8538 2.24391 30.8292 0.0834961 27.4996 0.0834961C24.1701 0.0834961 21.1455 2.24391 18.9596 6.1835L2.69297 35.4635C0.634221 39.1997 0.405471 42.7835 2.05755 45.6047C3.70964 48.426 6.96297 49.9764 11.233 49.9764H43.7663C48.0363 49.9764 51.2896 48.426 52.9417 45.6047C54.5938 42.7835 54.3651 39.1743 52.3063 35.4635Z" fill="#FF7D59"/>
<path d="M27.5 32.4896C26.4579 32.4896 25.5938 31.6254 25.5938 30.5833V17.875C25.5938 16.8329 26.4579 15.9688 27.5 15.9688C28.5421 15.9688 29.4062 16.8329 29.4062 17.875V30.5833C29.4062 31.6254 28.5421 32.4896 27.5 32.4896Z" fill="#FF7D59"/>
<path d="M27.4997 40.7503C27.3472 40.7503 27.1693 40.7249 26.9913 40.6995C26.8388 40.6741 26.6863 40.6232 26.5338 40.547C26.3813 40.4962 26.2288 40.4199 26.0763 40.3182C25.9493 40.2166 25.8222 40.1149 25.6951 40.0132C25.2376 39.5303 24.958 38.8695 24.958 38.2087C24.958 37.5478 25.2376 36.887 25.6951 36.4041C25.8222 36.3024 25.9493 36.2007 26.0763 36.0991C26.2288 35.9974 26.3813 35.9212 26.5338 35.8703C26.6863 35.7941 26.8388 35.7432 26.9913 35.7178C27.3218 35.6416 27.6776 35.6416 27.9826 35.7178C28.1605 35.7432 28.313 35.7941 28.4655 35.8703C28.618 35.9212 28.7705 35.9974 28.923 36.0991C29.0501 36.2007 29.1772 36.3024 29.3043 36.4041C29.7618 36.887 30.0413 37.5478 30.0413 38.2087C30.0413 38.8695 29.7618 39.5303 29.3043 40.0132C29.1772 40.1149 29.0501 40.2166 28.923 40.3182C28.7705 40.4199 28.618 40.4962 28.4655 40.547C28.313 40.6232 28.1605 40.6741 27.9826 40.6995C27.8301 40.7249 27.6522 40.7503 27.4997 40.7503Z" fill="#FF7D59"/>
</svg>
