<svg width="20" height="20" viewBox="0 0 20 20" fill="none" xmlns="http://www.w3.org/2000/svg">
<path opacity="0.4" d="M15.5576 1.6665H13.9742C12.1576 1.6665 11.1992 2.62484 11.1992 4.4415V6.02484C11.1992 7.8415 12.1576 8.79984 13.9742 8.79984H15.5576C17.3742 8.79984 18.3326 7.8415 18.3326 6.02484V4.4415C18.3326 2.62484 17.3742 1.6665 15.5576 1.6665Z" fill="#048DC3"/>
<path opacity="0.4" d="M6.03464 11.1919H4.4513C2.6263 11.1919 1.66797 12.1502 1.66797 13.9669V15.5502C1.66797 17.3752 2.6263 18.3336 4.44297 18.3336H6.0263C7.84297 18.3336 8.8013 17.3752 8.8013 15.5586V13.9752C8.80964 12.1502 7.8513 11.1919 6.03464 11.1919Z" fill="#048DC3"/>
<path d="M5.24297 8.8165C7.21739 8.8165 8.81797 7.21592 8.81797 5.2415C8.81797 3.26709 7.21739 1.6665 5.24297 1.6665C3.26855 1.6665 1.66797 3.26709 1.66797 5.2415C1.66797 7.21592 3.26855 8.8165 5.24297 8.8165Z" fill="#048DC3"/>
<path d="M14.7586 18.3331C16.733 18.3331 18.3336 16.7325 18.3336 14.7581C18.3336 12.7837 16.733 11.1831 14.7586 11.1831C12.7842 11.1831 11.1836 12.7837 11.1836 14.7581C11.1836 16.7325 12.7842 18.3331 14.7586 18.3331Z" fill="#048DC3"/>
</svg>
