<svg width="20" height="20" viewBox="0 0 20 20" fill="none" xmlns="http://www.w3.org/2000/svg">
<path opacity="0.4" d="M13.493 1.6665H6.50964C3.4763 1.6665 1.66797 3.47484 1.66797 6.50817V13.4832C1.66797 16.5248 3.4763 18.3332 6.50964 18.3332H13.4846C16.518 18.3332 18.3263 16.5248 18.3263 13.4915V6.50817C18.3346 3.47484 16.5263 1.6665 13.493 1.6665Z" fill="#048DC3"/>
<path d="M13.125 8.125H6.875C6.53333 8.125 6.25 7.84167 6.25 7.5C6.25 7.15833 6.53333 6.875 6.875 6.875H13.125C13.4667 6.875 13.75 7.15833 13.75 7.5C13.75 7.84167 13.4667 8.125 13.125 8.125Z" fill="#048DC3"/>
<path d="M13.125 13.125H6.875C6.53333 13.125 6.25 12.8417 6.25 12.5C6.25 12.1583 6.53333 11.875 6.875 11.875H13.125C13.4667 11.875 13.75 12.1583 13.75 12.5C13.75 12.8417 13.4667 13.125 13.125 13.125Z" fill="#048DC3"/>
</svg>
