<svg width="16" height="16" viewBox="0 0 16 16" fill="none" xmlns="http://www.w3.org/2000/svg">
<path opacity="0.4" d="M13.667 6.79301H11.7403C10.1603 6.79301 8.87366 5.50634 8.87366 3.92634V1.99967C8.87366 1.63301 8.57366 1.33301 8.20699 1.33301H5.38033C3.32699 1.33301 1.66699 2.66634 1.66699 5.04634V10.953C1.66699 13.333 3.32699 14.6663 5.38033 14.6663H10.6203C12.6737 14.6663 14.3337 13.333 14.3337 10.953V7.45967C14.3337 7.09301 14.0337 6.79301 13.667 6.79301Z" fill="#435567"/>
<path d="M10.5338 1.47365C10.2604 1.20032 9.78711 1.38699 9.78711 1.76699V4.09365C9.78711 5.06699 10.6138 5.87365 11.6204 5.87365C12.2538 5.88032 13.1338 5.88032 13.8871 5.88032C14.2671 5.88032 14.4671 5.43365 14.2004 5.16699C13.2404 4.20032 11.5204 2.46032 10.5338 1.47365Z" fill="#435567"/>
<path d="M7.6863 8.31301L6.35297 6.97967C6.3463 6.97301 6.33964 6.97301 6.33964 6.96634C6.29964 6.92634 6.2463 6.89301 6.19297 6.86634C6.1863 6.86634 6.1863 6.86634 6.17964 6.86634C6.1263 6.84634 6.07297 6.83967 6.01964 6.83301C5.99964 6.83301 5.9863 6.83301 5.9663 6.83301C5.9263 6.83301 5.87964 6.84634 5.83964 6.85967C5.81964 6.86634 5.8063 6.87301 5.79297 6.87967C5.73964 6.90634 5.6863 6.93301 5.6463 6.97967L4.31297 8.31301C4.11964 8.50634 4.11964 8.82634 4.31297 9.01967C4.5063 9.21301 4.8263 9.21301 5.01964 9.01967L5.49964 8.53967V11.333C5.49964 11.6063 5.7263 11.833 5.99964 11.833C6.27297 11.833 6.49964 11.6063 6.49964 11.333V8.53967L6.97964 9.01967C7.07964 9.11967 7.2063 9.16634 7.33297 9.16634C7.45964 9.16634 7.5863 9.11967 7.6863 9.01967C7.87964 8.82634 7.87964 8.50634 7.6863 8.31301Z" fill="#435567"/>
</svg>
