<svg width="15" height="15" viewBox="0 0 15 15" fill="none" xmlns="http://www.w3.org/2000/svg">
<path opacity="0.4" d="M7.5 13.6875C10.9518 13.6875 13.75 10.8893 13.75 7.4375C13.75 3.98572 10.9518 1.1875 7.5 1.1875C4.04822 1.1875 1.25 3.98572 1.25 7.4375C1.25 10.8893 4.04822 13.6875 7.5 13.6875Z" fill="#435567"/>
<path d="M8.91211 7.5L7.96836 7.16875V5.05H8.19336C8.69961 5.05 9.11211 5.49375 9.11211 6.0375C9.11211 6.29375 9.32461 6.50625 9.58086 6.50625C9.83711 6.50625 10.0496 6.29375 10.0496 6.0375C10.0496 4.975 9.21836 4.1125 8.19336 4.1125H7.96836V3.75C7.96836 3.49375 7.75586 3.28125 7.49961 3.28125C7.24336 3.28125 7.03086 3.49375 7.03086 3.75V4.1125H6.62461C5.69961 4.1125 4.94336 4.89375 4.94336 5.85C4.94336 6.96875 5.59336 7.325 6.08711 7.5L7.03086 7.83125V9.94375H6.80586C6.29961 9.94375 5.88711 9.5 5.88711 8.95625C5.88711 8.7 5.67461 8.4875 5.41836 8.4875C5.16211 8.4875 4.94961 8.7 4.94961 8.95625C4.94961 10.0187 5.78086 10.8812 6.80586 10.8812H7.03086V11.25C7.03086 11.5062 7.24336 11.7188 7.49961 11.7188C7.75586 11.7188 7.96836 11.5062 7.96836 11.25V10.8875H8.37461C9.29961 10.8875 10.0559 10.1063 10.0559 9.15C10.0496 8.025 9.39961 7.66875 8.91211 7.5ZM6.39961 6.61875C6.08086 6.50625 5.88711 6.4 5.88711 5.85625C5.88711 5.4125 6.21836 5.05625 6.63086 5.05625H7.03711V6.84375L6.39961 6.61875ZM8.37461 9.95H7.96836V8.1625L8.59961 8.38125C8.91836 8.49375 9.11211 8.6 9.11211 9.14375C9.11211 9.5875 8.78086 9.95 8.37461 9.95Z" fill="#435567"/>
</svg>
