<svg width="9" height="3" viewBox="0 0 9 3" fill="none" xmlns="http://www.w3.org/2000/svg">
<path d="M-4.42578e-08 1.0124C-6.83537e-08 0.461152 0.459 -9.77717e-05 1.0125 -9.77959e-05C1.56375 -9.782e-05 2.025 0.461152 2.025 1.0124C2.025 1.56365 1.56375 2.0249 1.0125 2.0249C0.459 2.0249 -2.01619e-08 1.56365 -4.42578e-08 1.0124ZM3.4875 1.0124C3.4875 0.461152 3.9465 -9.79241e-05 4.5 -9.79483e-05C5.05125 -9.79724e-05 5.5125 0.461152 5.5125 1.0124C5.5125 1.56365 5.05125 2.0249 4.5 2.0249C3.9465 2.0249 3.4875 1.56365 3.4875 1.0124ZM6.975 1.0124C6.975 0.461152 7.434 -9.80766e-05 7.9875 -9.81008e-05C8.53875 -9.81249e-05 9 0.461152 9 1.0124C9 1.56365 8.53875 2.0249 7.9875 2.0249C7.434 2.0249 6.975 1.56365 6.975 1.0124Z" fill="#667789"/>
</svg>
