<svg width="19" height="19" viewBox="0 0 19 19" fill="none" xmlns="http://www.w3.org/2000/svg">
<path opacity="0.4" d="M12.2537 2.375H5.95203C3.22078 2.375 1.58203 4.00583 1.58203 6.745V13.0387C1.58203 15.7858 3.22078 17.4167 5.95203 17.4167H12.2458C14.9849 17.4167 16.6158 15.7858 16.6158 13.0467V6.745C16.6237 4.00583 14.9849 2.375 12.2537 2.375Z" fill="#667789"/>
<path d="M16.6409 2.35898C15.2238 0.933978 13.8384 0.902311 12.3817 2.35898L11.4872 3.24564C11.408 3.32481 11.3842 3.43564 11.4159 3.53856C11.9701 5.47814 13.5217 7.02981 15.4613 7.58398C15.4851 7.59189 15.5247 7.59189 15.5484 7.59189C15.6276 7.59189 15.7067 7.56023 15.7622 7.50481L16.6409 6.61814C17.3613 5.89773 17.7176 5.20898 17.7176 4.50439C17.7176 3.79189 17.3613 3.08731 16.6409 2.35898Z" fill="#667789"/>
<path d="M14.1387 8.24921C13.925 8.14629 13.7191 8.04337 13.5291 7.92462C13.3708 7.82962 13.2125 7.72671 13.062 7.61587C12.9354 7.53671 12.7929 7.41796 12.6504 7.29921C12.6345 7.29129 12.587 7.25171 12.5237 7.18837C12.2783 6.99046 12.017 6.72129 11.7716 6.42837C11.7558 6.41254 11.7083 6.36504 11.6687 6.29379C11.5896 6.20671 11.4708 6.05629 11.3679 5.89004C11.2808 5.77921 11.1779 5.62087 11.0829 5.45462C10.9641 5.25671 10.8612 5.05879 10.7662 4.85296C10.6633 4.63129 10.5841 4.42546 10.5129 4.22754L6.25372 8.48671C5.97663 8.76379 5.70747 9.28629 5.65205 9.67421L5.31163 12.0334C5.24038 12.5321 5.37497 12.9992 5.68372 13.308C5.94497 13.5692 6.30122 13.7038 6.69705 13.7038C6.78413 13.7038 6.87122 13.6959 6.9583 13.688L9.30955 13.3555C9.69747 13.3 10.22 13.0388 10.4971 12.7538L14.7562 8.49462C14.5583 8.43129 14.3604 8.34421 14.1387 8.24921Z" fill="#667789"/>
</svg>
