<svg width="19" height="22" viewBox="0 0 19 22" fill="none" xmlns="http://www.w3.org/2000/svg">
<path opacity="0.4" d="M9.68724 14.9594C11.3073 14.9594 12.6206 13.6461 12.6206 12.0261C12.6206 10.4061 11.3073 9.09277 9.68724 9.09277C8.0672 9.09277 6.75391 10.4061 6.75391 12.0261C6.75391 13.6461 8.0672 14.9594 9.68724 14.9594Z" fill="#60A812"/>
<path d="M9.68436 16.4268C6.74516 16.4268 4.35156 18.398 4.35156 20.8268C4.35156 20.991 4.48063 21.1201 4.6449 21.1201H14.7238C14.8881 21.1201 15.0172 20.991 15.0172 20.8268C15.0172 18.398 12.6236 16.4268 9.68436 16.4268Z" fill="#BFDCA0"/>
<path d="M9.6823 0.900878L10.134 1.80434C10.1956 1.93011 10.3599 2.05074 10.4985 2.07384L11.3173 2.20988C11.8409 2.29714 11.9641 2.67701 11.5868 3.05174L10.9502 3.68828C10.8424 3.79608 10.7834 4.00398 10.8168 4.15284L10.999 4.94081C11.1427 5.56451 10.8116 5.80578 10.2598 5.47981L9.49237 5.02551C9.35377 4.94338 9.12533 4.94338 8.98417 5.02551L8.21673 5.47981C7.66747 5.80578 7.3338 5.56194 7.47753 4.94081L7.65977 4.15284C7.69313 4.00398 7.6341 3.79608 7.5263 3.68828L6.88977 3.05174C6.51503 2.67701 6.63567 2.29714 7.15927 2.20988L7.97803 2.07384C8.11407 2.05074 8.27833 1.93011 8.33993 1.80434L8.79167 0.900878C9.03807 0.410645 9.43847 0.410645 9.6823 0.900878Z" fill="#60A812"/>
<path d="M3.52214 5.30127L3.97388 6.20474C4.03548 6.3305 4.19974 6.45114 4.33834 6.47424L5.15711 6.61027C5.68071 6.69754 5.80391 7.0774 5.42661 7.45214L4.79008 8.08867C4.68228 8.19647 4.62324 8.40437 4.65661 8.55324L4.83884 9.3412C4.98258 9.9649 4.65148 10.2062 4.09964 9.8802L3.33221 9.4259C3.19361 9.34377 2.96518 9.34377 2.82401 9.4259L2.05658 9.8802C1.50731 10.2062 1.17364 9.96234 1.31738 9.3412L1.49961 8.55324C1.53298 8.40437 1.47394 8.19647 1.36614 8.08867L0.729611 7.45214C0.354878 7.0774 0.475511 6.69754 0.999111 6.61027L1.81788 6.47424C1.95391 6.45114 2.11818 6.3305 2.17978 6.20474L2.63151 5.30127C2.87791 4.81104 3.27831 4.81104 3.52214 5.30127Z" fill="#60A812"/>
<path d="M15.8425 5.30127L16.2942 6.20474C16.3558 6.3305 16.5201 6.45114 16.6587 6.47424L17.4774 6.61027C18.001 6.69754 18.1242 7.0774 17.7469 7.45214L17.1104 8.08867C17.0026 8.19647 16.9436 8.40437 16.9769 8.55324L17.1592 9.3412C17.3029 9.9649 16.9718 10.2062 16.42 9.8802L15.6525 9.4259C15.5139 9.34377 15.2855 9.34377 15.1443 9.4259L14.3769 9.8802C13.8276 10.2062 13.494 9.96234 13.6377 9.3412L13.8199 8.55324C13.8533 8.40437 13.7943 8.19647 13.6865 8.08867L13.0499 7.45214C12.6752 7.0774 12.7958 6.69754 13.3194 6.61027L14.1382 6.47424C14.2742 6.45114 14.4385 6.3305 14.5001 6.20474L14.9518 5.30127C15.1982 4.81104 15.5986 4.81104 15.8425 5.30127Z" fill="#60A812"/>
</svg>
