<svg width="15" height="13" viewBox="0 0 15 13" fill="none" xmlns="http://www.w3.org/2000/svg">
<path opacity="0.4" d="M14.0514 4.48136C12.4152 1.91011 10.021 0.429688 7.49935 0.429688C6.23851 0.429688 5.0131 0.798018 3.89393 1.48511C2.77476 2.17927 1.76893 3.19219 0.947263 4.48136C0.238933 5.59344 0.238933 7.39969 0.947263 8.51179C2.58351 11.0901 4.97768 12.5634 7.49935 12.5634C8.76018 12.5634 9.98561 12.1951 11.1048 11.508C12.2239 10.8139 13.2298 9.80089 14.0514 8.51179C14.7598 7.40677 14.7598 5.59344 14.0514 4.48136ZM7.49935 9.36179C5.91268 9.36179 4.63768 8.07969 4.63768 6.50011C4.63768 4.92052 5.91268 3.63844 7.49935 3.63844C9.08601 3.63844 10.361 4.92052 10.361 6.50011C10.361 8.07969 9.08601 9.36179 7.49935 9.36179Z" fill="#667789"/>
<path d="M7.50117 4.47363C6.38908 4.47363 5.48242 5.3803 5.48242 6.49946C5.48242 7.61155 6.38908 8.51821 7.50117 8.51821C8.61325 8.51821 9.52697 7.61155 9.52697 6.49946C9.52697 5.38738 8.61325 4.47363 7.50117 4.47363Z" fill="#667789"/>
</svg>
