<svg width="7" height="12" viewBox="0 0 7 12" fill="none" xmlns="http://www.w3.org/2000/svg">
<path d="M1.95231 6.77503C1.90149 6.77503 0.835421 6.77533 0.343738 6.77488C0.0906126 6.77473 0.000303459 6.69042 0.000303459 6.45432C-0.000101153 5.84787 -0.000101153 5.24142 0.000303459 4.63496C0.000465303 4.40186 0.0959536 4.31291 0.345842 4.31276C0.837525 4.31246 1.89777 4.31261 1.95231 4.31261V2.99231C1.95263 2.3962 2.06738 1.8256 2.39415 1.30315C2.72868 0.768396 3.21551 0.402094 3.83942 0.190293C4.23901 0.0545428 4.65382 0.000392559 5.07785 9.25577e-05C5.60838 -0.000207444 6.13891 0.000242554 6.66959 0.00114256C6.89763 0.00144256 6.99879 0.094893 6.99927 0.307744C7.00024 0.878197 7.00024 1.44865 6.99927 2.01895C6.99895 2.23405 6.902 2.32045 6.66879 2.32285C6.23391 2.3272 5.79871 2.3245 5.36432 2.3407C4.92556 2.3407 4.69477 2.5393 4.69477 2.96021C4.68425 3.40541 4.6904 3.85106 4.6904 4.31246C4.73151 4.31246 5.98014 4.31231 6.56375 4.31246C6.82885 4.31246 6.91948 4.39691 6.91948 4.64397C6.91948 5.24712 6.91932 5.85042 6.91883 6.45357C6.91867 6.69702 6.83354 6.77473 6.56682 6.77488C5.98321 6.77518 4.73944 6.77503 4.68506 6.77503V11.6568C4.68506 11.917 4.59669 12 4.31961 12H2.29283C2.04796 12 1.95247 11.9118 1.95247 11.6848L1.95231 6.77503Z" fill="#3D6AD6"/>
</svg>
