<svg width="18" height="18" viewBox="0 0 18 18" fill="none" xmlns="http://www.w3.org/2000/svg">
<path d="M15.7937 8.86519L15.6737 8.7002C15.4637 8.4452 15.2162 8.24269 14.9312 8.09269C14.5487 7.87519 14.1137 7.7627 13.6637 7.7627H4.32618C3.87618 7.7627 3.44868 7.87519 3.05868 8.09269C2.76618 8.25019 2.50368 8.46769 2.28618 8.73769C1.85868 9.28519 1.65618 9.9602 1.72368 10.6352L2.00118 14.1377C2.09868 15.1952 2.22618 16.5002 4.60368 16.5002H13.3937C15.7712 16.5002 15.8912 15.1952 15.9962 14.1302L16.2737 10.6427C16.3412 10.0127 16.1762 9.38269 15.7937 8.86519ZM10.7912 13.0052H7.19868C6.90618 13.0052 6.67368 12.7652 6.67368 12.4802C6.67368 12.1952 6.90618 11.9552 7.19868 11.9552H10.7912C11.0837 11.9552 11.3162 12.1952 11.3162 12.4802C11.3162 12.7727 11.0837 13.0052 10.7912 13.0052Z" fill="#667789"/>
<path opacity="0.4" d="M2.53516 8.4825C2.70016 8.3325 2.86516 8.1975 3.06016 8.0925C3.44266 7.875 3.87766 7.7625 4.32766 7.7625H13.6727C14.1227 7.7625 14.5502 7.875 14.9402 8.0925C15.1352 8.1975 15.3077 8.3325 15.4652 8.49V8.0925V7.365C15.4652 4.6875 14.6477 3.87 11.9702 3.87H10.1852C9.85516 3.87 9.84766 3.8625 9.65266 3.6075L8.75266 2.4C8.32516 1.845 7.98766 1.5 6.91516 1.5H6.03016C3.35266 1.5 2.53516 2.3175 2.53516 4.995V8.1V8.4825Z" fill="#667789"/>
</svg>
