<svg width="16" height="15" viewBox="0 0 16 15" fill="none" xmlns="http://www.w3.org/2000/svg">
<path d="M9.20928 1.07376L10.5724 3.71226C10.7583 4.07955 11.254 4.43185 11.6722 4.49931L14.143 4.89659C15.723 5.15144 16.0947 6.26081 14.9562 7.35519L13.0354 9.21413C12.7101 9.52895 12.532 10.1361 12.6326 10.5709L13.1826 12.8721C13.6163 14.6935 12.6172 15.3981 10.9519 14.4462L8.63613 13.1194C8.21789 12.8795 7.52857 12.8795 7.10259 13.1194L4.78678 14.4462C3.12931 15.3981 2.12243 14.686 2.55616 12.8721L3.10607 10.5709C3.20676 10.1361 3.02862 9.52895 2.70332 9.21413L0.782514 7.35519C-0.348283 6.26081 0.0157408 5.15144 1.59576 4.89659L4.06647 4.49931C4.47697 4.43185 4.97266 4.07955 5.15854 3.71226L6.5217 1.07376C7.26523 -0.357921 8.47348 -0.357921 9.20928 1.07376Z" fill="#E0E0E0"/>
</svg>
