<svg width="36" height="36" viewBox="0 0 36 36" fill="none" xmlns="http://www.w3.org/2000/svg">
<path opacity="0.4" d="M4.12522 27.975C3.51022 27.975 3.00022 27.465 3.00022 26.85V18.3C2.92522 14.235 4.44022 10.395 7.26022 7.51495C10.0802 4.64995 13.8602 3.07495 17.9252 3.07495C26.2352 3.07495 33.0002 9.83995 33.0002 18.15V26.6999C33.0002 27.3149 32.4902 27.825 31.8752 27.825C31.2602 27.825 30.7502 27.3149 30.7502 26.6999V18.15C30.7502 11.085 25.0052 5.32495 17.9252 5.32495C14.4602 5.32495 11.2502 6.65995 8.86522 9.08995C6.46522 11.535 5.19022 14.79 5.25022 18.27V26.8349C5.25022 27.4649 4.75522 27.975 4.12522 27.975Z" fill="#67A051"/>
<path d="M8.91 18.675H8.715C5.565 18.675 3 21.24 3 24.39V27.21C3 30.36 5.565 32.9251 8.715 32.9251H8.91C12.06 32.9251 14.625 30.36 14.625 27.21V24.39C14.625 21.24 12.06 18.675 8.91 18.675Z" fill="#67A051"/>
<path d="M27.285 18.675H27.09C23.94 18.675 21.375 21.24 21.375 24.39V27.21C21.375 30.36 23.94 32.9251 27.09 32.9251H27.285C30.435 32.9251 33 30.36 33 27.21V24.39C33 21.24 30.435 18.675 27.285 18.675Z" fill="#67A051"/>
</svg>
