<svg width="38" height="38" viewBox="0 0 38 38" fill="none" xmlns="http://www.w3.org/2000/svg">
<path opacity="0.4" d="M34.8334 12.3659V25.6343C34.8334 30.0834 32.7909 33.1392 29.1968 34.295C28.1518 34.6592 26.9484 34.8334 25.6343 34.8334H12.3659C11.0517 34.8334 9.84841 34.6592 8.80341 34.295C5.20924 33.1392 3.16675 30.0834 3.16675 25.6343V12.3659C3.16675 6.60258 6.60258 3.16675 12.3659 3.16675H25.6343C31.3976 3.16675 34.8334 6.60258 34.8334 12.3659Z" fill="#67A051"/>
<path d="M29.1966 34.295C28.1516 34.6591 26.9482 34.8334 25.6341 34.8334H12.3657C11.0516 34.8334 9.84822 34.6591 8.80322 34.295C9.35739 30.115 13.7274 26.8691 18.9999 26.8691C24.2724 26.8691 28.6424 30.115 29.1966 34.295Z" fill="#67A051"/>
<path d="M24.6682 18.3351C24.6682 21.4701 22.1349 24.0192 18.9999 24.0192C15.8649 24.0192 13.3315 21.4701 13.3315 18.3351C13.3315 15.2001 15.8649 12.6667 18.9999 12.6667C22.1349 12.6667 24.6682 15.2001 24.6682 18.3351Z" fill="#67A051"/>
</svg>
