<svg width="38" height="38" viewBox="0 0 38 38" fill="none" xmlns="http://www.w3.org/2000/svg">
<path d="M26.5209 5.63674V3.16675C26.5209 2.51758 25.9825 1.97925 25.3334 1.97925C24.6842 1.97925 24.1459 2.51758 24.1459 3.16675V5.54175H13.8542V3.16675C13.8542 2.51758 13.3159 1.97925 12.6667 1.97925C12.0175 1.97925 11.4792 2.51758 11.4792 3.16675V5.63674C7.2042 6.03258 5.13004 8.58174 4.81337 12.3659C4.7817 12.8251 5.1617 13.2051 5.60504 13.2051H32.395C32.8542 13.2051 33.2342 12.8092 33.1867 12.3659C32.87 8.58174 30.7959 6.03258 26.5209 5.63674Z" fill="#67A051"/>
<path opacity="0.4" d="M31.6667 15.5801C32.5375 15.5801 33.25 16.2926 33.25 17.1634V26.9168C33.25 31.6667 30.875 34.8334 25.3333 34.8334H12.6667C7.125 34.8334 4.75 31.6667 4.75 26.9168V17.1634C4.75 16.2926 5.4625 15.5801 6.33333 15.5801H31.6667Z" fill="#67A051"/>
<path d="M13.4583 23.7499C13.0467 23.7499 12.635 23.5757 12.3342 23.2907C12.0492 22.9899 11.875 22.5782 11.875 22.1665C11.875 21.7549 12.0492 21.3432 12.3342 21.0424C12.7775 20.5991 13.4742 20.4565 14.06 20.7099C14.2658 20.789 14.44 20.8999 14.5825 21.0424C14.8675 21.3432 15.0417 21.7549 15.0417 22.1665C15.0417 22.5782 14.8675 22.9899 14.5825 23.2907C14.2817 23.5757 13.87 23.7499 13.4583 23.7499Z" fill="#67A051"/>
<path d="M18.9998 23.7499C18.5882 23.7499 18.1765 23.5757 17.8757 23.2907C17.5907 22.9899 17.4165 22.5782 17.4165 22.1665C17.4165 21.7549 17.5907 21.3432 17.8757 21.0424C18.0182 20.8999 18.1923 20.789 18.3982 20.7099C18.984 20.4565 19.6807 20.5991 20.124 21.0424C20.409 21.3432 20.5832 21.7549 20.5832 22.1665C20.5832 22.5782 20.409 22.9899 20.124 23.2907C20.0448 23.354 19.9657 23.4174 19.8865 23.4807C19.7915 23.544 19.6965 23.5916 19.6015 23.6232C19.5065 23.6707 19.4115 23.7024 19.3165 23.7182C19.2057 23.7341 19.1107 23.7499 18.9998 23.7499Z" fill="#67A051"/>
<path d="M24.5418 23.7499C24.1302 23.7499 23.7185 23.5758 23.4177 23.2908C23.1327 22.9899 22.9585 22.5783 22.9585 22.1666C22.9585 21.7549 23.1327 21.3433 23.4177 21.0425C23.576 20.9 23.7343 20.7891 23.9402 20.7099C24.2252 20.5832 24.5418 20.5516 24.8585 20.6149C24.9535 20.6308 25.0485 20.6624 25.1435 20.7099C25.2385 20.7416 25.3335 20.7891 25.4285 20.8525C25.5077 20.9158 25.5868 20.9791 25.666 21.0425C25.951 21.3433 26.1252 21.7549 26.1252 22.1666C26.1252 22.5783 25.951 22.9899 25.666 23.2908C25.5868 23.3541 25.5077 23.4174 25.4285 23.4807C25.3335 23.5441 25.2385 23.5916 25.1435 23.6233C25.0485 23.6708 24.9535 23.7025 24.8585 23.7183C24.7477 23.7341 24.6368 23.7499 24.5418 23.7499Z" fill="#67A051"/>
<path d="M13.4583 29.2917C13.2525 29.2917 13.0467 29.2442 12.8567 29.165C12.6508 29.0859 12.4925 28.975 12.3342 28.8325C12.0492 28.5317 11.875 28.12 11.875 27.7084C11.875 27.2967 12.0492 26.885 12.3342 26.5842C12.4925 26.4417 12.6508 26.3308 12.8567 26.2517C13.1417 26.125 13.4583 26.0933 13.775 26.1567C13.87 26.1725 13.965 26.2042 14.06 26.2517C14.155 26.2833 14.25 26.3309 14.345 26.3942C14.4242 26.4575 14.5033 26.5209 14.5825 26.5842C14.8675 26.885 15.0417 27.2967 15.0417 27.7084C15.0417 28.12 14.8675 28.5317 14.5825 28.8325C14.5033 28.8958 14.4242 28.975 14.345 29.0225C14.25 29.0858 14.155 29.1334 14.06 29.165C13.965 29.2125 13.87 29.2442 13.775 29.26C13.6642 29.2759 13.5692 29.2917 13.4583 29.2917Z" fill="#67A051"/>
<path d="M18.9998 29.2916C18.5882 29.2916 18.1765 29.1175 17.8757 28.8325C17.5907 28.5316 17.4165 28.12 17.4165 27.7083C17.4165 27.2966 17.5907 26.885 17.8757 26.5842C18.4615 25.9983 19.5382 25.9983 20.124 26.5842C20.409 26.885 20.5832 27.2966 20.5832 27.7083C20.5832 28.12 20.409 28.5316 20.124 28.8325C19.8232 29.1175 19.4115 29.2916 18.9998 29.2916Z" fill="#67A051"/>
<path d="M24.5418 29.2916C24.1302 29.2916 23.7185 29.1175 23.4177 28.8325C23.1327 28.5316 22.9585 28.12 22.9585 27.7083C22.9585 27.2966 23.1327 26.885 23.4177 26.5842C24.0035 25.9983 25.0802 25.9983 25.666 26.5842C25.951 26.885 26.1252 27.2966 26.1252 27.7083C26.1252 28.12 25.951 28.5316 25.666 28.8325C25.3652 29.1175 24.9535 29.2916 24.5418 29.2916Z" fill="#67A051"/>
</svg>
