<svg width="257" height="252" viewBox="0 0 257 252" fill="none" xmlns="http://www.w3.org/2000/svg">
<g opacity="0.33">
<rect width="56.9227" height="56.8" rx="5.66288" transform="matrix(-1 0 0 1 170.768 0)" fill="#C7EAF8"/>
<rect width="56.9227" height="56.8" rx="5.66288" transform="matrix(-1 0 0 1 227.69 56.7998)" fill="#C7EAF8"/>
<rect width="56.9227" height="56.8" rx="5.66288" transform="matrix(-1 0 0 1 288.029 3.25488)" fill="#C7EAF8"/>
<rect width="56.9227" height="56.8" rx="5.66288" transform="matrix(-1 0 0 1 170.848 225.41)" fill="#C7EAF8"/>
<rect width="56.9227" height="56.8" rx="5.66288" transform="matrix(-1 0 0 1 170.768 113.6)" fill="#C7EAF8"/>
<rect width="56.9227" height="56.8" rx="5.66288" transform="matrix(-1 0 0 1 227.838 170.224)" fill="#C7EAF8"/>
<rect width="56.9227" height="56.8" rx="5.66288" transform="matrix(-1 0 0 1 113.845 170.4)" fill="#C7EAF8"/>
<rect width="56.9227" height="56.8" rx="5.66288" transform="matrix(-1 0 0 1 56.9224 227.2)" fill="#C7EAF8"/>
</g>
</svg>
