<svg width="13" height="13" viewBox="0 0 13 13" fill="none" xmlns="http://www.w3.org/2000/svg">
<path d="M6.2773 4.12817C5.09088 4.12817 4.1272 5.09185 4.1272 6.27828C4.1272 7.4647 5.09088 8.43073 6.2773 8.43073C7.46373 8.43073 8.42975 7.4647 8.42975 6.27828C8.42975 5.09185 7.46373 4.12817 6.2773 4.12817Z" fill="white"/>
<path d="M9.52313 0.416504H3.03296C1.59096 0.416504 0.41626 1.59121 0.41626 3.03321V9.52338C0.41626 10.9677 1.59096 12.1401 3.03296 12.1401H9.52313C10.9675 12.1401 12.1398 10.9677 12.1398 9.52338V3.03321C12.1398 1.59121 10.9675 0.416504 9.52313 0.416504ZM6.27805 10.0767C4.18422 10.0767 2.47961 8.37212 2.47961 6.27829C2.47961 4.18446 4.18422 2.4822 6.27805 2.4822C8.37188 2.4822 10.0765 4.18446 10.0765 6.27829C10.0765 8.37212 8.37188 10.0767 6.27805 10.0767ZM10.1562 3.17154C9.71306 3.17154 9.35197 2.8128 9.35197 2.36965C9.35197 1.9265 9.71306 1.56541 10.1562 1.56541C10.5994 1.56541 10.9604 1.9265 10.9604 2.36965C10.9604 2.8128 10.5994 3.17154 10.1562 3.17154Z" fill="white"/>
</svg>
