<svg width="18" height="18" viewBox="0 0 18 18" fill="none" xmlns="http://www.w3.org/2000/svg">
<path opacity="0.4" d="M14.4066 4.77013C13.6266 3.19513 12.1191 2.03263 10.3716 1.65013C8.54156 1.24513 6.66656 1.68013 5.23406 2.83513C3.79406 3.98263 2.97656 5.70013 2.97656 7.53763C2.97656 9.48013 4.13906 11.5126 5.89406 12.6901V13.3126C5.88656 13.5226 5.87906 13.8451 6.13406 14.1076C6.39656 14.3776 6.78656 14.4076 7.09406 14.4076H10.9416C11.3466 14.4076 11.6541 14.2951 11.8641 14.0851C12.1491 13.7926 12.1416 13.4176 12.1341 13.2151V12.6901C14.4591 11.1226 15.9216 7.81513 14.4066 4.77013Z" fill="#60A812"/>
<path d="M11.4454 16.4998C11.4004 16.4998 11.3479 16.4923 11.3029 16.4773C9.79536 16.0498 8.21286 16.0498 6.70536 16.4773C6.42786 16.5523 6.13536 16.3948 6.06036 16.1173C5.97786 15.8398 6.14286 15.5473 6.42036 15.4723C8.11536 14.9923 9.90036 14.9923 11.5954 15.4723C11.8729 15.5548 12.0379 15.8398 11.9554 16.1173C11.8804 16.3498 11.6704 16.4998 11.4454 16.4998Z" fill="#60A812"/>
</svg>
