<svg width="13" height="13" viewBox="0 0 13 13" fill="none" xmlns="http://www.w3.org/2000/svg">
<path d="M10.7197 11.0865H8.95706V8.32621C8.95706 7.66793 8.94533 6.8209 8.04027 6.8209C7.12231 6.8209 6.98163 7.5378 6.98163 8.27873V11.0865H5.21958V5.40997H6.91188V6.18548H6.93532C7.10474 5.89604 7.34945 5.65795 7.64342 5.49651C7.93739 5.33508 8.26961 5.25635 8.60476 5.2687C10.3914 5.2687 10.7203 6.44399 10.7203 7.97215L10.7197 11.0865ZM3.23067 4.63386C2.95939 4.63386 2.69921 4.5261 2.50739 4.33427C2.31556 4.14244 2.20779 3.88227 2.20779 3.61098C2.20779 3.3397 2.31556 3.07952 2.50739 2.8877C2.69921 2.69587 2.95939 2.5881 3.23067 2.5881C3.50196 2.5881 3.76213 2.69587 3.95396 2.8877C4.14579 3.07952 4.25356 3.3397 4.25356 3.61098C4.25356 3.88227 4.14579 4.14244 3.95396 4.33427C3.76213 4.5261 3.50196 4.63386 3.23067 4.63386ZM4.1117 11.0865H2.3473V5.40997H4.1117V11.0865ZM11.5984 0.951489H1.46159C1.23154 0.948987 1.00991 1.0379 0.845373 1.1987C0.680839 1.35949 0.586858 1.57903 0.584076 1.80907L0.584076 11.9875C0.589938 12.467 0.982678 12.8509 1.46159 12.8456H11.5984C11.8289 12.8485 12.0512 12.7597 12.2164 12.5988C12.3816 12.4379 12.4762 12.218 12.4794 11.9875V1.80848C12.4762 1.57797 12.3815 1.35818 12.2164 1.19738C12.0512 1.03658 11.8289 0.948515 11.5984 0.951489Z" fill="white"/>
</svg>
