<svg width="19" height="19" viewBox="0 0 19 19" fill="none" xmlns="http://www.w3.org/2000/svg">
<path opacity="0.4" d="M16.3239 6.68967C15.4926 3.03216 12.3022 1.3855 9.49971 1.3855C9.49971 1.3855 9.49971 1.3855 9.49179 1.3855C6.69721 1.3855 3.49888 3.02425 2.66763 6.68175C1.74138 10.7667 4.24304 14.2263 6.50721 16.4034C7.34638 17.2109 8.42304 17.6147 9.49971 17.6147C10.5764 17.6147 11.653 17.2109 12.4843 16.4034C14.7485 14.2263 17.2501 10.7747 16.3239 6.68967Z" fill="#60A812"/>
<path d="M9.49961 10.6557C10.8769 10.6557 11.9934 9.53922 11.9934 8.16196C11.9934 6.7847 10.8769 5.66821 9.49961 5.66821C8.12235 5.66821 7.00586 6.7847 7.00586 8.16196C7.00586 9.53922 8.12235 10.6557 9.49961 10.6557Z" fill="#60A812"/>
</svg>
