<svg width="15" height="15" viewBox="0 0 15 15" fill="none" xmlns="http://www.w3.org/2000/svg">
<path opacity="0.4" d="M12.8877 5.28125C12.2314 2.39375 9.71268 1.09375 7.50018 1.09375C7.50018 1.09375 7.50018 1.09375 7.49393 1.09375C5.28768 1.09375 2.76268 2.3875 2.10643 5.275C1.37518 8.5 3.35018 11.2312 5.13768 12.95C5.80018 13.5875 6.65018 13.9062 7.50018 13.9062C8.35018 13.9062 9.20018 13.5875 9.85643 12.95C11.6439 11.2312 13.6189 8.50625 12.8877 5.28125Z" fill="#667789"/>
<path d="M7.5 8.4126C8.58731 8.4126 9.46875 7.53116 9.46875 6.44385C9.46875 5.35654 8.58731 4.4751 7.5 4.4751C6.41269 4.4751 5.53125 5.35654 5.53125 6.44385C5.53125 7.53116 6.41269 8.4126 7.5 8.4126Z" fill="#667789"/>
</svg>
