<svg width="13" height="13" viewBox="0 0 13 13" fill="none" xmlns="http://www.w3.org/2000/svg">
<path opacity="0.4" d="M11.1686 4.57741C10.5999 2.07491 8.41694 0.948242 6.49944 0.948242C6.49944 0.948242 6.49944 0.948242 6.49402 0.948242C4.58194 0.948242 2.39361 2.06949 1.82486 4.57199C1.19111 7.36699 2.90277 9.73407 4.45194 11.2237C5.02611 11.7762 5.76277 12.0524 6.49944 12.0524C7.23611 12.0524 7.97277 11.7762 8.54153 11.2237C10.0907 9.73407 11.8024 7.37241 11.1686 4.57741Z" fill="#60A812"/>
<path d="M6.49922 7.29043C7.44155 7.29043 8.20547 6.52652 8.20547 5.58418C8.20547 4.64184 7.44155 3.87793 6.49922 3.87793C5.55688 3.87793 4.79297 4.64184 4.79297 5.58418C4.79297 6.52652 5.55688 7.29043 6.49922 7.29043Z" fill="#60A812"/>
</svg>
