<svg width="195" height="203" viewBox="0 0 195 203" fill="none" xmlns="http://www.w3.org/2000/svg">
<g opacity="0.8">
<path d="M45.0005 5.87349C45.0005 2.62966 47.6141 1.28849e-05 50.838 1.2603e-05L89.163 9.25256e-06C92.387 8.97071e-06 95.0005 2.62966 95.0005 5.87349L95.0005 44.3265C95.0005 47.5704 92.387 50.2 89.1631 50.2L50.838 50.2C47.6141 50.2 45.0005 47.5704 45.0005 44.3265L45.0005 5.87349Z" fill="url(#paint0_linear_684_6400)"/>
<path d="M-4.99952 56.0736C-4.99952 52.8298 -2.38601 50.2001 0.837941 50.2001L39.163 50.2001C42.3869 50.2001 45.0004 52.8298 45.0004 56.0736L45.0005 94.5266C45.0005 97.7705 42.3869 100.4 39.163 100.4L0.837945 100.4C-2.38601 100.4 -4.99952 97.7705 -4.99952 94.5266L-4.99952 56.0736Z" fill="url(#paint1_linear_684_6400)"/>
<path d="M-58 8.75029C-58 5.50645 -55.3865 2.8768 -52.1625 2.8768L-13.8375 2.8768C-10.6135 2.8768 -8.00001 5.50645 -8.00001 8.75029L-8.00001 47.2033C-8.00001 50.4472 -10.6135 53.0768 -13.8375 53.0768L-52.1625 53.0768C-55.3865 53.0768 -58 50.4472 -58 47.2033L-58 8.75029Z" fill="url(#paint2_linear_684_6400)"/>
<path d="M44.9296 205.091C44.9296 201.847 47.5431 199.218 50.7671 199.218L89.0921 199.218C92.316 199.218 94.9296 201.847 94.9296 205.091L94.9296 243.544C94.9296 246.788 92.3161 249.418 89.0921 249.418L50.7671 249.418C47.5431 249.418 44.9296 246.788 44.9296 243.544L44.9296 205.091Z" fill="url(#paint3_linear_684_6400)"/>
<path d="M45.0005 106.274C45.0005 103.03 47.6141 100.4 50.838 100.4L89.1631 100.4C92.387 100.4 95.0005 103.03 95.0005 106.273L95.0005 144.727C95.0005 147.97 92.387 150.6 89.1631 150.6L50.838 150.6C47.6141 150.6 45.0005 147.97 45.0005 144.727L45.0005 106.274Z" fill="url(#paint4_linear_684_6400)"/>
<path d="M-5.12915 156.318C-5.12915 153.074 -2.51564 150.444 0.708311 150.444L39.0334 150.444C42.2573 150.444 44.8708 153.074 44.8708 156.318L44.8708 194.771C44.8708 198.014 42.2573 200.644 39.0334 200.644L0.708315 200.644C-2.51564 200.644 -5.12915 198.014 -5.12915 194.771L-5.12915 156.318Z" fill="url(#paint5_linear_684_6400)"/>
<path d="M95.0003 156.473C95.0003 153.23 97.6138 150.6 100.838 150.6L139.163 150.6C142.387 150.6 145 153.23 145 156.473L145 194.926C145 198.17 142.387 200.8 139.163 200.8L100.838 200.8C97.6138 200.8 95.0003 198.17 95.0003 194.926L95.0003 156.473Z" fill="url(#paint6_linear_684_6400)"/>
<path d="M145 206.673C145 203.43 147.614 200.8 150.838 200.8L189.163 200.8C192.386 200.8 195 203.43 195 206.673L195 245.127C195 248.37 192.386 251 189.163 251L150.838 251C147.614 251 145 248.37 145 245.127L145 206.673Z" fill="url(#paint7_linear_684_6400)"/>
</g>
<defs>
<linearGradient id="paint0_linear_684_6400" x1="-158" y1="260.5" x2="106.994" y2="-2.02545" gradientUnits="userSpaceOnUse">
<stop stop-color="#82C5D6"/>
<stop offset="1" stop-color="#F7F7F7" stop-opacity="0"/>
</linearGradient>
<linearGradient id="paint1_linear_684_6400" x1="-158" y1="260.5" x2="106.994" y2="-2.02545" gradientUnits="userSpaceOnUse">
<stop stop-color="#82C5D6"/>
<stop offset="1" stop-color="#F7F7F7" stop-opacity="0"/>
</linearGradient>
<linearGradient id="paint2_linear_684_6400" x1="-158" y1="260.5" x2="106.994" y2="-2.02545" gradientUnits="userSpaceOnUse">
<stop stop-color="#82C5D6"/>
<stop offset="1" stop-color="#F7F7F7" stop-opacity="0"/>
</linearGradient>
<linearGradient id="paint3_linear_684_6400" x1="-158" y1="260.5" x2="106.994" y2="-2.02545" gradientUnits="userSpaceOnUse">
<stop stop-color="#82C5D6"/>
<stop offset="1" stop-color="#F7F7F7" stop-opacity="0"/>
</linearGradient>
<linearGradient id="paint4_linear_684_6400" x1="-158" y1="260.5" x2="106.994" y2="-2.02545" gradientUnits="userSpaceOnUse">
<stop stop-color="#82C5D6"/>
<stop offset="1" stop-color="#F7F7F7" stop-opacity="0"/>
</linearGradient>
<linearGradient id="paint5_linear_684_6400" x1="-158" y1="260.5" x2="106.994" y2="-2.02545" gradientUnits="userSpaceOnUse">
<stop stop-color="#82C5D6"/>
<stop offset="1" stop-color="#F7F7F7" stop-opacity="0"/>
</linearGradient>
<linearGradient id="paint6_linear_684_6400" x1="-158" y1="260.5" x2="106.994" y2="-2.02545" gradientUnits="userSpaceOnUse">
<stop stop-color="#82C5D6"/>
<stop offset="1" stop-color="#F7F7F7" stop-opacity="0"/>
</linearGradient>
<linearGradient id="paint7_linear_684_6400" x1="-158" y1="260.5" x2="106.994" y2="-2.02545" gradientUnits="userSpaceOnUse">
<stop stop-color="#82C5D6"/>
<stop offset="1" stop-color="#F7F7F7" stop-opacity="0"/>
</linearGradient>
</defs>
</svg>
