<svg width="176" height="184" viewBox="0 0 176 184" fill="none" xmlns="http://www.w3.org/2000/svg">
<path d="M32.838 142.515C10.412 145.769 1.60185 171.527 0 184V0H176C146.526 1.3015 135.09 30.8034 134.556 43.2761V101.843C130.711 132.428 110.091 140.888 96.1111 140.888C84.3642 140.075 55.2639 139.261 32.838 142.515Z" fill="#DDDDDD"/>
<path d="M28.7098 124.701C9.10309 127.548 1.40048 150.086 0 161V0H153C127.231 1.13881 118.107 26.953 117.64 37.8666V89.1128C114.279 115.875 96.2509 123.277 84.0286 123.277C73.7584 122.565 48.3164 121.854 28.7098 124.701Z" fill="white"/>
</svg>
