<svg width="20" height="20" viewBox="0 0 20 20" fill="none" xmlns="http://www.w3.org/2000/svg">
<path opacity="0.4" d="M11.0326 1.6665C11.4242 1.6665 11.7492 1.98317 11.7492 2.38317V17.6248C11.7492 18.0165 11.4326 18.3415 11.0326 18.3415C6.12422 18.3415 2.69922 14.9165 2.69922 10.0082C2.69922 5.09984 6.13255 1.6665 11.0326 1.6665Z" fill="#048DC3"/>
<path d="M17.1164 9.6168L14.7497 7.2418C14.5081 7.00013 14.1081 7.00013 13.8664 7.2418C13.6247 7.48346 13.6247 7.88346 13.8664 8.12513L15.1664 9.42513H7.19141C6.84974 9.42513 6.56641 9.70846 6.56641 10.0501C6.56641 10.3918 6.84974 10.6751 7.19141 10.6751H15.1664L13.8664 11.9751C13.6247 12.2168 13.6247 12.6168 13.8664 12.8585C13.9914 12.9835 14.1497 13.0418 14.3081 13.0418C14.4664 13.0418 14.6247 12.9835 14.7497 12.8585L17.1164 10.4835C17.3581 10.2501 17.3581 9.85846 17.1164 9.6168Z" fill="#048DC3"/>
</svg>
