<svg width="15" height="15" viewBox="0 0 15 15" fill="none" xmlns="http://www.w3.org/2000/svg">
<path opacity="0.4" d="M10.625 12.8125H4.375C2.5 12.8125 1.25 11.875 1.25 9.6875V5.3125C1.25 3.125 2.5 2.1875 4.375 2.1875H10.625C12.5 2.1875 13.75 3.125 13.75 5.3125V9.6875C13.75 11.875 12.5 12.8125 10.625 12.8125Z" fill="#60A812"/>
<path d="M7.49974 8.04348C6.97474 8.04348 6.44349 7.88099 6.03724 7.54974L4.08099 5.98724C3.88099 5.82474 3.84349 5.53099 4.00599 5.33099C4.16849 5.13099 4.46224 5.09349 4.66224 5.25599L6.61849 6.81849C7.09349 7.19974 7.89974 7.19974 8.37474 6.81849L10.331 5.25599C10.531 5.09349 10.831 5.12474 10.9872 5.33099C11.1497 5.53099 11.1185 5.83099 10.9122 5.98724L8.95599 7.54974C8.55599 7.88099 8.02474 8.04348 7.49974 8.04348Z" fill="#60A812"/>
</svg>
