<svg width="18" height="18" viewBox="0 0 18 18" fill="none" xmlns="http://www.w3.org/2000/svg">
<path d="M14.625 6C15.6605 6 16.5 5.16053 16.5 4.125C16.5 3.08947 15.6605 2.25 14.625 2.25C13.5895 2.25 12.75 3.08947 12.75 4.125C12.75 5.16053 13.5895 6 14.625 6Z" fill="#60A812"/>
<path d="M14.625 6C15.6605 6 16.5 5.16053 16.5 4.125C16.5 3.08947 15.6605 2.25 14.625 2.25C13.5895 2.25 12.75 3.08947 12.75 4.125C12.75 5.16053 13.5895 6 14.625 6Z" fill="#60A812"/>
<path opacity="0.4" d="M15.54 6.98245C16.0125 6.83245 16.5 7.19995 16.5 7.70245V11.6324C16.5 14.2574 15 15.3824 12.75 15.3824H5.25C3 15.3824 1.5 14.2574 1.5 11.6324V6.38245C1.5 3.75745 3 2.63245 5.25 2.63245H10.9575C11.445 2.63245 11.775 3.08245 11.685 3.55495C11.595 3.99745 11.61 4.46995 11.745 4.95745C12.0225 5.96245 12.84 6.76495 13.845 7.02745C14.4375 7.17745 15.015 7.14745 15.54 6.98245Z" fill="#60A812"/>
<path d="M9.00008 9.65245C8.37008 9.65245 7.73258 9.45746 7.24508 9.05996L4.89758 7.18496C4.65758 6.98996 4.61258 6.63745 4.80758 6.39745C5.00258 6.15745 5.35507 6.11246 5.59507 6.30746L7.94257 8.18246C8.51257 8.63996 9.48007 8.63996 10.0501 8.18246L10.9351 7.47746C11.1751 7.28246 11.5351 7.31995 11.7226 7.56745C11.9176 7.80745 11.8801 8.16745 11.6326 8.35495L10.7476 9.05996C10.2676 9.45746 9.63008 9.65245 9.00008 9.65245Z" fill="#60A812"/>
</svg>
