<svg width="20" height="20" viewBox="0 0 20 20" fill="none" xmlns="http://www.w3.org/2000/svg">
<path d="M16.6667 5.62484C17.9323 5.62484 18.9583 4.59882 18.9583 3.33317C18.9583 2.06752 17.9323 1.0415 16.6667 1.0415C15.401 1.0415 14.375 2.06752 14.375 3.33317C14.375 4.59882 15.401 5.62484 16.6667 5.62484Z" fill="#048DC3"/>
<path opacity="0.4" d="M16.668 6.6665C14.8263 6.6665 13.3346 5.17484 13.3346 3.33317C13.3346 2.72484 13.5096 2.15817 13.8013 1.6665H5.83464C3.53464 1.6665 1.66797 3.52484 1.66797 5.8165V10.7998V11.6332C1.66797 13.9248 3.53464 15.7832 5.83464 15.7832H7.08464C7.30964 15.7832 7.60964 15.9332 7.7513 16.1165L9.0013 17.7748C9.5513 18.5082 10.4513 18.5082 11.0013 17.7748L12.2513 16.1165C12.4096 15.9082 12.6596 15.7832 12.918 15.7832H14.168C16.468 15.7832 18.3346 13.9248 18.3346 11.6332V6.19984C17.843 6.4915 17.2763 6.6665 16.668 6.6665Z" fill="#048DC3"/>
<path d="M10.0013 10.0002C9.53464 10.0002 9.16797 9.62516 9.16797 9.16683C9.16797 8.7085 9.54297 8.3335 10.0013 8.3335C10.4596 8.3335 10.8346 8.7085 10.8346 9.16683C10.8346 9.62516 10.468 10.0002 10.0013 10.0002Z" fill="#048DC3"/>
<path d="M13.3333 10.0002C12.8667 10.0002 12.5 9.62516 12.5 9.16683C12.5 8.7085 12.875 8.3335 13.3333 8.3335C13.7917 8.3335 14.1667 8.7085 14.1667 9.16683C14.1667 9.62516 13.8 10.0002 13.3333 10.0002Z" fill="#048DC3"/>
<path d="M6.66536 10.0002C6.1987 10.0002 5.83203 9.62516 5.83203 9.16683C5.83203 8.7085 6.20703 8.3335 6.66536 8.3335C7.1237 8.3335 7.4987 8.7085 7.4987 9.16683C7.4987 9.62516 7.13203 10.0002 6.66536 10.0002Z" fill="#048DC3"/>
</svg>
