<svg width="12" height="12" viewBox="0 0 12 12" fill="none" xmlns="http://www.w3.org/2000/svg">
<path d="M10.1492 1.85213C9.02076 0.725502 7.92816 0.698678 6.77286 1.85213L6.06535 2.55851C6.00266 2.6211 5.98477 2.71051 6.00268 2.79098C6.44151 4.32892 7.66845 5.5539 9.20884 5.99203C9.22675 6.00098 9.25361 6.00098 9.28048 6.00098C9.34317 6.00098 9.40586 5.97415 9.45064 5.92944L10.1492 5.23201C10.7224 4.65975 11 4.11432 11 3.55995C11 2.97876 10.7224 2.42438 10.1492 1.85213Z" fill="#667789"/>
<path d="M8.00533 6.67871C7.83512 6.5981 7.67387 6.51749 7.52158 6.41896C7.39616 6.34731 7.27077 6.2667 7.15431 6.17713C7.05577 6.11443 6.93929 6.02486 6.82283 5.92634C6.80492 5.91738 6.7691 5.89051 6.72431 5.83677C6.53618 5.67554 6.32117 5.46058 6.12409 5.23666C6.10618 5.2277 6.07931 5.18292 6.04347 5.12917C5.98076 5.05752 5.89119 4.94108 5.80161 4.81568C5.72994 4.72612 5.64932 4.60072 5.57765 4.47532C5.48807 4.32306 5.39849 4.16183 5.32682 4.00061C5.2462 3.82147 5.18348 3.66025 5.12078 3.49902L1.74353 6.87576C1.51958 7.09969 1.31354 7.5117 1.26875 7.81624L1.00895 9.67927C0.946242 10.0734 1.06269 10.4406 1.30456 10.6914C1.5106 10.8974 1.79728 11.0049 2.11082 11.0049C2.18249 11.0049 2.24518 10.9959 2.31684 10.987L4.18017 10.7272C4.48475 10.6824 4.89682 10.4764 5.12078 10.2525L8.49805 6.87576C8.3368 6.81307 8.17553 6.75037 8.00533 6.67871Z" fill="#BBC2C9"/>
</svg>
