<svg width="220" height="284" viewBox="0 0 220 284" fill="none" xmlns="http://www.w3.org/2000/svg">
<g opacity="0.38">
<rect width="56.9227" height="56.8" rx="5.66288" transform="matrix(-1 0 0 1 101.768 0)" fill="white"/>
<rect width="56.9227" height="56.8" rx="5.66288" transform="matrix(-1 0 0 1 158.69 56.8)" fill="white"/>
<rect width="56.9227" height="56.8" rx="5.66288" transform="matrix(-1 0 0 1 219.029 3.25513)" fill="white"/>
<rect width="56.9227" height="56.8" rx="5.66288" transform="matrix(-1 0 0 1 101.848 225.41)" fill="white"/>
<rect width="56.9227" height="56.8" rx="5.66288" transform="matrix(-1 0 0 1 101.768 113.6)" fill="white"/>
<rect width="56.9227" height="56.8" rx="5.66288" transform="matrix(-1 0 0 1 158.838 170.223)" fill="white"/>
<rect width="56.9227" height="56.8" rx="5.66288" transform="matrix(-1 0 0 1 44.8452 170.4)" fill="white"/>
</g>
</svg>
