<svg width="23" height="23" viewBox="0 0 23 23" fill="none" xmlns="http://www.w3.org/2000/svg">
<path d="M11.3548 2.82324C8.2279 2.82324 5.6867 5.36445 5.6867 8.49135V11.2215C5.6867 11.7978 5.44108 12.6763 5.14823 13.1675L4.06184 14.9719C3.39112 16.0866 3.85401 17.3242 5.0821 17.7398C9.1537 19.1002 13.5465 19.1002 17.6181 17.7398C18.7611 17.3619 19.2618 16.011 18.6383 14.9719L17.5519 13.1675C17.2685 12.6763 17.0229 11.7978 17.0229 11.2215V8.49135C17.0229 5.37389 14.4723 2.82324 11.3548 2.82324Z" stroke="#374053" stroke-width="1.5" stroke-miterlimit="10" stroke-linecap="round"/>
<path d="M13.1028 3.09606C12.8099 3.01104 12.5076 2.94492 12.1959 2.90713C11.289 2.79377 10.4199 2.85989 9.60742 3.09606C9.88138 2.397 10.5616 1.90576 11.3551 1.90576C12.1486 1.90576 12.8288 2.397 13.1028 3.09606Z" stroke="#374053" stroke-width="1.5" stroke-miterlimit="10" stroke-linecap="round" stroke-linejoin="round"/>
<path d="M14.1876 18.0796C14.1876 19.6383 12.9123 20.9136 11.3536 20.9136C10.5789 20.9136 9.86098 20.5925 9.35085 20.0823C8.84072 19.5722 8.51953 18.8542 8.51953 18.0796" stroke="#374053" stroke-width="1.5" stroke-miterlimit="10"/>
</svg>
