<svg width="18" height="23" viewBox="0 0 18 23" fill="none" xmlns="http://www.w3.org/2000/svg">
<path fill-rule="evenodd" clip-rule="evenodd" d="M2.98438 0H10.6487L17.1445 6.77074V19.9399C17.1445 21.5896 15.8098 22.9243 14.1658 22.9243H2.98438C1.33467 22.9243 4.71433e-10 21.5896 4.71433e-10 19.9399V2.98438C-2.89643e-05 1.33467 1.33464 0 2.98438 0Z" fill="#E55F5F"/>
<path opacity="0.302" fill-rule="evenodd" clip-rule="evenodd" d="M10.6406 0V6.71918H17.1421L10.6406 0Z" fill="white"/>
<path d="M3.31641 17.1043V12.917H5.09788C5.53896 12.917 5.88839 13.0373 6.15188 13.2836C6.41537 13.5242 6.54713 13.8507 6.54713 14.2574C6.54713 14.6641 6.41537 14.9906 6.15188 15.2312C5.88839 15.4775 5.53896 15.5978 5.09788 15.5978H4.38758V17.1043H3.31641ZM4.38758 14.687H4.97759C5.13797 14.687 5.264 14.6526 5.34993 14.5725C5.43584 14.498 5.48169 14.3949 5.48169 14.2574C5.48169 14.12 5.43587 14.0168 5.34993 13.9424C5.26402 13.8622 5.138 13.8278 4.97759 13.8278H4.38758V14.687ZM6.98818 17.1043V12.917H8.47178C8.76392 12.917 9.03888 12.9571 9.29664 13.043C9.5544 13.1289 9.78927 13.2492 9.99547 13.4154C10.2017 13.5757 10.3678 13.7934 10.4881 14.0684C10.6027 14.3433 10.6657 14.6584 10.6657 15.0135C10.6657 15.3629 10.6027 15.678 10.4881 15.9529C10.3678 16.2279 10.2017 16.4456 9.99547 16.6059C9.78924 16.7721 9.5544 16.8923 9.29664 16.9783C9.03888 17.0642 8.76392 17.1043 8.47178 17.1043H6.98818ZM8.03644 16.1935H8.34576C8.51187 16.1935 8.66654 16.1764 8.80974 16.1363C8.94721 16.0962 9.07897 16.0331 9.205 15.9472C9.32529 15.8613 9.42267 15.741 9.4914 15.5806C9.56013 15.4202 9.59451 15.2312 9.59451 15.0135C9.59451 14.7901 9.56013 14.6011 9.4914 14.4407C9.42267 14.2803 9.32529 14.16 9.205 14.0741C9.07897 13.9882 8.94724 13.9252 8.80974 13.8851C8.66654 13.845 8.51187 13.8278 8.34576 13.8278H8.03644V16.1935ZM11.2041 17.1043V12.917H14.1828V13.8278H12.2753V14.498H13.799V15.403H12.2753V17.1043H11.2041Z" fill="white"/>
</svg>
