<svg width="14" height="14" viewBox="0 0 14 14" fill="none" xmlns="http://www.w3.org/2000/svg">
<path opacity="0.4" d="M6.8788 8.28852L4.9713 10.196C4.7613 10.0093 4.55714 9.81685 4.3588 9.61852C3.75797 9.01185 3.21547 8.37602 2.7313 7.71102C2.25297 7.04602 1.86797 6.38102 1.58797 5.72185C1.30797 5.05685 1.16797 4.42102 1.16797 3.81435C1.16797 3.41768 1.23797 3.03852 1.37797 2.68852C1.51797 2.33268 1.73964 2.00602 2.0488 1.71435C2.42214 1.34685 2.83047 1.16602 3.26214 1.16602C3.42547 1.16602 3.5888 1.20102 3.73464 1.27102C3.8863 1.34102 4.02047 1.44602 4.12547 1.59768L5.4788 3.50518C5.5838 3.65102 5.65964 3.78518 5.71214 3.91352C5.76464 4.03602 5.7938 4.15852 5.7938 4.26935C5.7938 4.40935 5.75297 4.54935 5.6713 4.68352C5.59547 4.81768 5.48464 4.95768 5.34464 5.09768L4.9013 5.55852C4.83714 5.62268 4.80797 5.69852 4.80797 5.79185C4.80797 5.83852 4.8138 5.87935 4.82547 5.92602C4.84297 5.97268 4.86047 6.00768 4.87214 6.04268C4.97714 6.23518 5.15797 6.48602 5.41464 6.78935C5.67713 7.09268 5.95714 7.40185 6.26047 7.71102C6.47047 7.91518 6.67464 8.11352 6.8788 8.28852Z" fill="#60A812"/>
<path d="M12.8154 10.6929C12.8154 10.8563 12.7863 11.0254 12.7279 11.1888C12.7104 11.2354 12.6929 11.2821 12.6696 11.3288C12.5704 11.5388 12.4421 11.7371 12.2729 11.9238C11.9871 12.2388 11.6721 12.4663 11.3163 12.6121C11.3104 12.6121 11.3046 12.6179 11.2988 12.6179C10.9546 12.7579 10.5813 12.8338 10.1788 12.8338C9.58378 12.8338 8.94794 12.6938 8.27711 12.4079C7.60628 12.1221 6.93544 11.7371 6.27044 11.2529C6.04294 11.0838 5.81544 10.9146 5.59961 10.7338L7.50711 8.82626C7.67044 8.94876 7.81628 9.0421 7.93878 9.10626C7.96794 9.11793 8.00294 9.13543 8.04378 9.15293C8.09044 9.17043 8.13711 9.17626 8.18961 9.17626C8.28878 9.17626 8.36461 9.14126 8.42878 9.0771L8.87211 8.6396C9.01794 8.49376 9.15794 8.38293 9.29211 8.31293C9.42628 8.23126 9.56044 8.19043 9.70628 8.19043C9.81711 8.19043 9.93378 8.21376 10.0621 8.26626C10.1904 8.31876 10.3246 8.3946 10.4704 8.49376L12.4013 9.8646C12.5529 9.9696 12.6579 10.0921 12.7221 10.2379C12.7804 10.3838 12.8154 10.5296 12.8154 10.6929Z" fill="#60A812"/>
</svg>
