<svg width="10" height="12" viewBox="0 0 10 12" fill="none" xmlns="http://www.w3.org/2000/svg">
<path d="M8.65935 4.92024L2.9161 1.26195C2.64312 1.08809 2.37483 1 2.11815 1C1.44932 1 1 1.5959 1 2.48285V9.79848C1 10.6854 1.4493 11.2811 2.11815 11.2811C2.37465 11.2811 2.64312 11.193 2.9161 11.0192L8.65935 7.36088C9.14458 7.05203 9.41183 6.61849 9.41183 6.14056C9.41183 5.66263 9.14458 5.2291 8.65935 4.92024ZM8.33881 6.7489L2.59556 10.407C2.42375 10.5163 2.25872 10.5743 2.11797 10.5743C1.68723 10.5743 1.64072 10.0317 1.64072 9.79846V2.48285C1.64072 2.24962 1.68723 1.70697 2.11813 1.70697C2.25888 1.70697 2.42409 1.7648 2.59573 1.87414L8.33881 5.53261C8.61337 5.70743 8.77077 5.92898 8.77077 6.14076C8.77077 6.35253 8.61337 6.57408 8.33881 6.7489Z" fill="white" stroke="white" stroke-width="0.2"/>
</svg>
