<svg width="13" height="13" viewBox="0 0 13 13" fill="none" xmlns="http://www.w3.org/2000/svg">
<path d="M6.5 0.25C3.05625 0.25 0.25 3.05625 0.25 6.5C0.25 9.94375 3.05625 12.75 6.5 12.75C9.94375 12.75 12.75 9.94375 12.75 6.5C12.75 3.05625 9.94375 0.25 6.5 0.25ZM9 6.96875H6.96875V9C6.96875 9.25625 6.75625 9.46875 6.5 9.46875C6.24375 9.46875 6.03125 9.25625 6.03125 9V6.96875H4C3.74375 6.96875 3.53125 6.75625 3.53125 6.5C3.53125 6.24375 3.74375 6.03125 4 6.03125H6.03125V4C6.03125 3.74375 6.24375 3.53125 6.5 3.53125C6.75625 3.53125 6.96875 3.74375 6.96875 4V6.03125H9C9.25625 6.03125 9.46875 6.24375 9.46875 6.5C9.46875 6.75625 9.25625 6.96875 9 6.96875Z" fill="#435567"/>
</svg>
