<svg width="20" height="20" viewBox="0 0 20 20" fill="none" xmlns="http://www.w3.org/2000/svg">
<path d="M13.9592 2.96699V1.66699C13.9592 1.32533 13.6758 1.04199 13.3342 1.04199C12.9925 1.04199 12.7092 1.32533 12.7092 1.66699V2.91699H7.29251V1.66699C7.29251 1.32533 7.00917 1.04199 6.66751 1.04199C6.32584 1.04199 6.04251 1.32533 6.04251 1.66699V2.96699C3.79251 3.17532 2.70084 4.51699 2.53418 6.50866C2.51751 6.75032 2.71751 6.95032 2.95084 6.95032H17.0508C17.2925 6.95032 17.4925 6.74199 17.4675 6.50866C17.3008 4.51699 16.2092 3.17532 13.9592 2.96699Z" fill="#667789"/>
<path opacity="0.4" d="M16.6667 8.2002C17.125 8.2002 17.5 8.5752 17.5 9.03353V14.1669C17.5 16.6669 16.25 18.3335 13.3333 18.3335H6.66667C3.75 18.3335 2.5 16.6669 2.5 14.1669V9.03353C2.5 8.5752 2.875 8.2002 3.33333 8.2002H16.6667Z" fill="#667789"/>
<path d="M7.08333 12.4997C6.86667 12.4997 6.65 12.4081 6.49167 12.2581C6.34167 12.0997 6.25 11.8831 6.25 11.6664C6.25 11.4497 6.34167 11.2331 6.49167 11.0747C6.725 10.8414 7.09167 10.7664 7.4 10.8997C7.50833 10.9414 7.6 10.9997 7.675 11.0747C7.825 11.2331 7.91667 11.4497 7.91667 11.6664C7.91667 11.8831 7.825 12.0997 7.675 12.2581C7.51667 12.4081 7.3 12.4997 7.08333 12.4997Z" fill="#667789"/>
<path d="M10.0013 12.4997C9.78464 12.4997 9.56797 12.4081 9.40964 12.2581C9.25964 12.0997 9.16797 11.8831 9.16797 11.6664C9.16797 11.4497 9.25964 11.2331 9.40964 11.0747C9.48464 10.9997 9.5763 10.9414 9.68463 10.8997C9.99297 10.7664 10.3596 10.8414 10.593 11.0747C10.743 11.2331 10.8346 11.4497 10.8346 11.6664C10.8346 11.8831 10.743 12.0997 10.593 12.2581C10.5513 12.2914 10.5096 12.3247 10.468 12.3581C10.418 12.3914 10.368 12.4164 10.318 12.4331C10.268 12.4581 10.218 12.4747 10.168 12.4831C10.1096 12.4914 10.0596 12.4997 10.0013 12.4997Z" fill="#667789"/>
<path d="M12.9154 12.5007C12.6987 12.5007 12.482 12.409 12.3237 12.259C12.1737 12.1007 12.082 11.884 12.082 11.6673C12.082 11.4507 12.1737 11.234 12.3237 11.0757C12.407 11.0007 12.4904 10.9423 12.5987 10.9006C12.7487 10.834 12.9154 10.8173 13.082 10.8507C13.132 10.859 13.182 10.8756 13.232 10.9006C13.282 10.9173 13.332 10.9423 13.382 10.9757C13.4237 11.009 13.4654 11.0423 13.507 11.0757C13.657 11.234 13.7487 11.4507 13.7487 11.6673C13.7487 11.884 13.657 12.1007 13.507 12.259C13.4654 12.2923 13.4237 12.3256 13.382 12.359C13.332 12.3923 13.282 12.4173 13.232 12.434C13.182 12.459 13.132 12.4757 13.082 12.484C13.0237 12.4923 12.9654 12.5007 12.9154 12.5007Z" fill="#667789"/>
<path d="M7.08333 15.4167C6.975 15.4167 6.86667 15.3917 6.76667 15.35C6.65833 15.3084 6.575 15.25 6.49167 15.175C6.34167 15.0167 6.25 14.8 6.25 14.5833C6.25 14.3667 6.34167 14.15 6.49167 13.9917C6.575 13.9167 6.65833 13.8583 6.76667 13.8167C6.91667 13.75 7.08333 13.7333 7.25 13.7667C7.3 13.775 7.35 13.7917 7.4 13.8167C7.45 13.8333 7.5 13.8584 7.55 13.8917C7.59167 13.925 7.63333 13.9584 7.675 13.9917C7.825 14.15 7.91667 14.3667 7.91667 14.5833C7.91667 14.8 7.825 15.0167 7.675 15.175C7.63333 15.2083 7.59167 15.25 7.55 15.275C7.5 15.3083 7.45 15.3334 7.4 15.35C7.35 15.375 7.3 15.3917 7.25 15.4C7.19167 15.4084 7.14167 15.4167 7.08333 15.4167Z" fill="#667789"/>
<path d="M10.0013 15.417C9.78464 15.417 9.56797 15.3253 9.40964 15.1753C9.25964 15.017 9.16797 14.8003 9.16797 14.5837C9.16797 14.367 9.25964 14.1503 9.40964 13.992C9.71797 13.6837 10.2846 13.6837 10.593 13.992C10.743 14.1503 10.8346 14.367 10.8346 14.5837C10.8346 14.8003 10.743 15.017 10.593 15.1753C10.4346 15.3253 10.218 15.417 10.0013 15.417Z" fill="#667789"/>
<path d="M12.9154 15.417C12.6987 15.417 12.482 15.3253 12.3237 15.1753C12.1737 15.017 12.082 14.8003 12.082 14.5837C12.082 14.367 12.1737 14.1503 12.3237 13.992C12.632 13.6837 13.1987 13.6837 13.507 13.992C13.657 14.1503 13.7487 14.367 13.7487 14.5837C13.7487 14.8003 13.657 15.017 13.507 15.1753C13.3487 15.3253 13.132 15.417 12.9154 15.417Z" fill="#667789"/>
</svg>
