<svg width="20" height="20" viewBox="0 0 20 20" fill="none" xmlns="http://www.w3.org/2000/svg">
<path d="M16.2337 2.3502L16.467 2.82519C16.5837 3.05852 16.8753 3.27519 17.1337 3.32519L17.4503 3.37519C18.4003 3.53353 18.6253 4.23353 17.942 4.92519L17.6503 5.21685C17.4587 5.41685 17.3503 5.80019 17.4087 6.06685L17.4503 6.24186C17.7087 7.39186 17.1003 7.83352 16.1003 7.23352L15.8837 7.10852C15.6253 6.95852 15.2087 6.95852 14.9503 7.10852L14.7337 7.23352C13.7253 7.84185 13.117 7.39186 13.3837 6.24186L13.4253 6.06685C13.4837 5.80019 13.3753 5.41685 13.1837 5.21685L12.892 4.92519C12.2087 4.23353 12.4337 3.53353 13.3837 3.37519L13.7003 3.32519C13.9503 3.28353 14.2503 3.05852 14.367 2.82519L14.6003 2.3502C15.0503 1.44186 15.7837 1.44186 16.2337 2.3502Z" fill="#667789"/>
<path opacity="0.4" d="M18.3327 8.05866V12.917C18.3327 15.8337 16.666 17.0837 14.166 17.0837H5.83268C3.33268 17.0837 1.66602 15.8337 1.66602 12.917V7.08366C1.66602 4.16699 3.33268 2.91699 5.83268 2.91699H11.7077C11.541 3.10033 11.416 3.317 11.341 3.55866C11.0993 4.30866 11.341 5.12533 12.0077 5.80033L12.166 5.95865C11.8244 7.46699 12.5327 8.17532 12.8577 8.40866C13.041 8.54199 13.416 8.75033 13.9493 8.75033C14.341 8.75033 14.8243 8.63366 15.3827 8.30033L15.416 8.28366L15.4494 8.30033C16.766 9.092 17.6577 8.64199 17.9744 8.40866C18.0744 8.34199 18.2077 8.22532 18.3327 8.05866Z" fill="#667789"/>
<path d="M10.001 10.7253C9.30095 10.7253 8.59262 10.5086 8.05096 10.067L5.44262 7.98364C5.17595 7.76697 5.12596 7.3753 5.34262 7.10864C5.55929 6.84197 5.95095 6.79197 6.21761 7.00864L8.82595 9.09197C9.45928 9.60031 10.5343 9.60031 11.1676 9.09197C11.4343 8.87531 11.826 8.91697 12.0426 9.19197C12.2593 9.45864 12.2176 9.85864 11.9426 10.067C11.4093 10.5086 10.701 10.7253 10.001 10.7253Z" fill="#667789"/>
</svg>
