<svg width="20" height="20" viewBox="0 0 20 20" fill="none" xmlns="http://www.w3.org/2000/svg">
<path d="M17.5758 5.81628C16.8675 5.03294 15.6842 4.64128 13.9675 4.64128H13.7675V4.60794C13.7675 3.20794 13.7675 1.47461 10.6342 1.47461H9.36751C6.23418 1.47461 6.23418 3.21628 6.23418 4.60794V4.64961H6.03418C4.30918 4.64961 3.13418 5.04128 2.42585 5.82461C1.60085 6.74128 1.62584 7.97461 1.70918 8.81628L1.71751 8.87461L1.80085 9.74961C1.80918 9.75794 1.82585 9.77461 1.84251 9.78294C2.11751 9.96628 2.40084 10.1496 2.70085 10.3163C2.81751 10.3913 2.94251 10.4579 3.06751 10.5246C4.49251 11.3079 6.05918 11.8329 7.65085 12.0913C7.72584 12.8746 8.06751 13.7913 9.89251 13.7913C11.7175 13.7913 12.0758 12.8829 12.1342 12.0746C13.8342 11.7996 15.4758 11.2079 16.9592 10.3413C17.0092 10.3163 17.0425 10.2913 17.0842 10.2663C17.4675 10.0496 17.8258 9.81628 18.1758 9.55794C18.1925 9.54961 18.2092 9.53294 18.2175 9.51628L18.2508 9.21628L18.2925 8.82461C18.3008 8.77461 18.3008 8.73294 18.3092 8.67461C18.3758 7.83294 18.3592 6.68294 17.5758 5.81628ZM10.9092 11.5246C10.9092 12.4079 10.9092 12.5413 9.88418 12.5413C8.85918 12.5413 8.85918 12.3829 8.85918 11.5329V10.4829H10.9092V11.5246ZM7.42584 4.64128V4.60794C7.42584 3.19128 7.42584 2.66628 9.36751 2.66628H10.6342C12.5758 2.66628 12.5758 3.19961 12.5758 4.60794V4.64961H7.42584V4.64128Z" fill="#667789"/>
<path opacity="0.4" d="M17.0841 10.25C17.0424 10.275 17.0008 10.3 16.9591 10.325C15.4758 11.1917 13.8341 11.775 12.1341 12.0583C12.0674 12.8583 11.7174 13.775 9.89245 13.775C8.06745 13.775 7.71745 12.8667 7.65078 12.075C6.05912 11.825 4.49245 11.3 3.06745 10.5083C2.94245 10.4417 2.81745 10.375 2.70078 10.3C2.40078 10.1333 2.11745 9.95 1.84245 9.76667C1.82578 9.75833 1.80911 9.74167 1.80078 9.73333L2.30911 15.1583C2.48411 16.8167 3.16745 18.525 6.83412 18.525H13.1841C16.8508 18.525 17.5341 16.8167 17.7091 15.15L18.2341 9.5C18.2258 9.51667 18.2091 9.53333 18.1924 9.54167C17.8341 9.8 17.4675 10.0417 17.0841 10.25Z" fill="#667789"/>
</svg>
