<svg width="20" height="20" viewBox="0 0 20 20" fill="none" xmlns="http://www.w3.org/2000/svg">
<path opacity="0.4" d="M18.3346 6.50768V13.491C18.3346 15.8327 17.2596 17.441 15.368 18.0493C14.818 18.241 14.1846 18.3327 13.493 18.3327H6.50963C5.81797 18.3327 5.18463 18.241 4.63463 18.0493C2.74297 17.441 1.66797 15.8327 1.66797 13.491V6.50768C1.66797 3.47435 3.4763 1.66602 6.50963 1.66602H13.493C16.5263 1.66602 18.3346 3.47435 18.3346 6.50768Z" fill="#626D83"/>
<path d="M15.3661 18.0499C14.8161 18.2416 14.1828 18.3333 13.4911 18.3333H6.50781C5.81615 18.3333 5.18281 18.2416 4.63281 18.0499C4.92448 15.8499 7.22448 14.1416 9.99948 14.1416C12.7745 14.1416 15.0745 15.8499 15.3661 18.0499Z" fill="#626D83"/>
<path d="M12.9842 9.64936C12.9842 11.2994 11.6509 12.641 10.0009 12.641C8.35091 12.641 7.01758 11.2994 7.01758 9.64936C7.01758 7.99936 8.35091 6.66602 10.0009 6.66602C11.6509 6.66602 12.9842 7.99936 12.9842 9.64936Z" fill="#626D83"/>
</svg>
