<svg width="18" height="20" viewBox="0 0 18 20" fill="none" xmlns="http://www.w3.org/2000/svg">
<path opacity="0.4" d="M15 16.85H14.24C13.44 16.85 12.68 17.16 12.12 17.72L10.41 19.41C9.63 20.18 8.35999 20.18 7.57999 19.41L5.87 17.72C5.31 17.16 4.54 16.85 3.75 16.85H3C1.34 16.85 0 15.52 0 13.88V2.97C0 1.33 1.34 0 3 0H15C16.66 0 18 1.33 18 2.97V13.88C18 15.51 16.66 16.85 15 16.85Z" fill="#667789"/>
<path d="M9.37576 3.65656L10.1824 5.2699C10.2924 5.49448 10.5858 5.7099 10.8333 5.75115L12.2953 5.99406C13.2303 6.1499 13.4503 6.82823 12.7766 7.4974L11.6399 8.63406C11.4474 8.82656 11.342 9.19781 11.4016 9.46365L11.727 10.8707C11.9837 11.9845 11.3924 12.4153 10.407 11.8332L9.03659 11.022C8.78909 10.8753 8.38118 10.8753 8.12909 11.022L6.75868 11.8332C5.77784 12.4153 5.18201 11.9799 5.43868 10.8707L5.76409 9.46365C5.82368 9.19781 5.71826 8.82656 5.52576 8.63406L4.38909 7.4974C3.71993 6.82823 3.93534 6.1499 4.87034 5.99406L6.33243 5.75115C6.57534 5.7099 6.86868 5.49448 6.97868 5.2699L7.78534 3.65656C8.22534 2.78115 8.94034 2.78115 9.37576 3.65656Z" fill="#667789"/>
</svg>
