<svg width="20" height="20" viewBox="0 0 20 20" fill="none" xmlns="http://www.w3.org/2000/svg">
<path opacity="0.4" d="M1.5 4.5752C1.5 4.99186 1.83333 5.3252 2.25 5.3252L6.125 5.3252C6.54167 5.3252 6.875 4.99186 6.875 4.5752C6.875 4.15853 6.54167 3.8252 6.125 3.8252L2.25 3.8252C1.83333 3.8252 1.5 4.15853 1.5 4.5752Z" fill="#435567"/>
<path d="M13.125 10C13.125 10.4167 13.4583 10.75 13.875 10.75L17.75 10.75C18.1667 10.75 18.5 10.4167 18.5 10C18.5 9.58333 18.1667 9.25 17.75 9.25L13.875 9.25C13.4667 9.25 13.125 9.58333 13.125 10Z" fill="#435567"/>
<path opacity="0.4" d="M1.5 15.4248C1.5 15.8415 1.83333 16.1748 2.25 16.1748L6.125 16.1748C6.54167 16.1748 6.875 15.8415 6.875 15.4248C6.875 15.0081 6.54167 14.6748 6.125 14.6748L2.25 14.6748C1.83333 14.6748 1.5 15.0165 1.5 15.4248Z" fill="#435567"/>
<path opacity="0.4" d="M8.47461 13.8751L8.47461 16.9751C8.47461 17.3918 8.80794 17.7251 9.22461 17.7251C9.64128 17.7251 9.97461 17.3918 9.97461 16.9751L9.97461 16.1751L17.7496 16.1751C18.1663 16.1751 18.4996 15.8418 18.4996 15.4251C18.4996 15.0084 18.1663 14.6751 17.7496 14.6751L9.97461 14.6751L9.97461 13.8751C9.97461 13.4584 9.64128 13.1251 9.22461 13.1251C8.80794 13.1251 8.47461 13.4668 8.47461 13.8751Z" fill="#435567"/>
<path opacity="0.4" d="M8.47461 3.025L8.47461 6.125C8.47461 6.54167 8.80794 6.875 9.22461 6.875C9.64128 6.875 9.97461 6.54167 9.97461 6.125L9.97461 5.325L17.7496 5.325C18.1663 5.325 18.4996 4.99167 18.4996 4.575C18.4996 4.15833 18.1663 3.825 17.7496 3.825L9.97461 3.825L9.97461 3.025C9.97461 2.60833 9.64128 2.275 9.22461 2.275C8.80794 2.275 8.47461 2.60833 8.47461 3.025Z" fill="#435567"/>
<path d="M10.025 8.4498L10.025 9.2498L2.25 9.2498C1.83333 9.2498 1.5 9.58314 1.5 9.9998C1.5 10.4165 1.83333 10.7498 2.25 10.7498L10.025 10.7498L10.025 11.5498C10.025 11.9665 10.3583 12.2998 10.775 12.2998C11.1917 12.2998 11.525 11.9665 11.525 11.5498L11.525 8.4498C11.525 8.03314 11.1917 7.6998 10.775 7.6998C10.3583 7.6998 10.025 8.03314 10.025 8.4498Z" fill="#435567"/>
</svg>
