<svg width="12" height="12" viewBox="0 0 12 12" fill="none" xmlns="http://www.w3.org/2000/svg">
<path d="M6.00033 0.166992C2.78616 0.166992 0.166992 2.78616 0.166992 6.00033C0.166992 9.21449 2.78616 11.8337 6.00033 11.8337C9.21449 11.8337 11.8337 9.21449 11.8337 6.00033C11.8337 2.78616 9.21449 0.166992 6.00033 0.166992ZM7.96033 7.34199C8.12949 7.51116 8.12949 7.79116 7.96033 7.96033C7.87283 8.04783 7.76199 8.08866 7.65116 8.08866C7.54033 8.08866 7.42949 8.04783 7.34199 7.96033L6.00033 6.61866L4.65866 7.96033C4.57116 8.04783 4.46033 8.08866 4.34949 8.08866C4.23866 8.08866 4.12783 8.04783 4.04033 7.96033C3.87116 7.79116 3.87116 7.51116 4.04033 7.34199L5.38199 6.00033L4.04033 4.65866C3.87116 4.48949 3.87116 4.20949 4.04033 4.04033C4.20949 3.87116 4.48949 3.87116 4.65866 4.04033L6.00033 5.38199L7.34199 4.04033C7.51116 3.87116 7.79116 3.87116 7.96033 4.04033C8.12949 4.20949 8.12949 4.48949 7.96033 4.65866L6.61866 6.00033L7.96033 7.34199Z" fill="white"/>
</svg>
