<svg width="25" height="25" viewBox="0 0 25 25" fill="none" xmlns="http://www.w3.org/2000/svg">
<path opacity="0.4" d="M9.90543 4.40633L18.8221 8.86466C22.8221 10.8647 22.8221 14.1355 18.8221 16.1355L9.90543 20.5938C3.90543 23.5938 1.45751 21.1355 4.45751 15.1459L5.36376 13.3438C5.62418 12.8126 5.62418 12.198 5.36376 11.6667L4.45751 9.85425C1.45751 3.86466 3.91584 1.40633 9.90543 4.40633Z" fill="#174DBA"/>
<path d="M15.457 13.2812H9.83203C9.40495 13.2812 9.05078 12.9271 9.05078 12.5C9.05078 12.0729 9.40495 11.7188 9.83203 11.7188H15.457C15.8841 11.7188 16.2383 12.0729 16.2383 12.5C16.2383 12.9271 15.8841 13.2812 15.457 13.2812Z" fill="#174DBA"/>
</svg>
