<svg width="18" height="18" viewBox="0 0 18 18" fill="none" xmlns="http://www.w3.org/2000/svg">
<path d="M15.0205 5.50867L6.46046 1.22867C0.710459 -1.65133 -1.64954 0.708669 1.23046 6.45867L2.10046 8.1987C2.35046 8.7087 2.35046 9.2987 2.10046 9.8087L1.23046 11.5387C-1.64954 17.2887 0.700459 19.6487 6.46046 16.7687L15.0205 12.4887C18.8605 10.5687 18.8605 7.4287 15.0205 5.50867ZM11.7905 9.7487H6.39046C5.98046 9.7487 5.64046 9.4087 5.64046 8.9987C5.64046 8.5887 5.98046 8.2487 6.39046 8.2487H11.7905C12.2005 8.2487 12.5405 8.5887 12.5405 8.9987C12.5405 9.4087 12.2005 9.7487 11.7905 9.7487Z" fill="#435567"/>
</svg>
