<svg width="18" height="18" viewBox="0 0 18 18" fill="none" xmlns="http://www.w3.org/2000/svg">
<path d="M14.625 6C15.6605 6 16.5 5.16053 16.5 4.125C16.5 3.08947 15.6605 2.25 14.625 2.25C13.5895 2.25 12.75 3.08947 12.75 4.125C12.75 5.16053 13.5895 6 14.625 6Z" fill="#60A812"/>
<path d="M14.625 6C15.6605 6 16.5 5.16053 16.5 4.125C16.5 3.08947 15.6605 2.25 14.625 2.25C13.5895 2.25 12.75 3.08947 12.75 4.125C12.75 5.16053 13.5895 6 14.625 6Z" fill="#60A812"/>
<path opacity="0.4" d="M15.54 6.98233C16.0125 6.83233 16.5 7.19983 16.5 7.70233V11.6323C16.5 14.2573 15 15.3823 12.75 15.3823H5.25C3 15.3823 1.5 14.2573 1.5 11.6323V6.38232C1.5 3.75732 3 2.63232 5.25 2.63232H10.9575C11.445 2.63232 11.775 3.08233 11.685 3.55483C11.595 3.99733 11.61 4.46983 11.745 4.95733C12.0225 5.96233 12.84 6.76482 13.845 7.02732C14.4375 7.17732 15.015 7.14733 15.54 6.98233Z" fill="#60A812"/>
<path d="M8.99812 9.65257C8.36812 9.65257 7.73063 9.45758 7.24313 9.06008L4.89562 7.18508C4.65562 6.99008 4.61063 6.63758 4.80563 6.39758C5.00063 6.15758 5.35312 6.11258 5.59312 6.30758L7.94062 8.18258C8.51062 8.64008 9.47812 8.64008 10.0481 8.18258L10.9331 7.47758C11.1731 7.28258 11.5331 7.32007 11.7206 7.56757C11.9156 7.80757 11.8781 8.16758 11.6306 8.35508L10.7456 9.06008C10.2656 9.45758 9.62812 9.65257 8.99812 9.65257Z" fill="#60A812"/>
</svg>
