<svg width="14" height="12" viewBox="0 0 14 12" fill="none" xmlns="http://www.w3.org/2000/svg">
<path opacity="0.4" d="M10.3333 11.6668H3.66665C1.66665 11.6668 0.333313 10.6668 0.333313 8.3335V3.66683C0.333313 1.3335 1.66665 0.333496 3.66665 0.333496H10.3333C12.3333 0.333496 13.6666 1.3335 13.6666 3.66683V8.3335C13.6666 10.6668 12.3333 11.6668 10.3333 11.6668Z" fill="#667789"/>
<path d="M6.99999 6.57998C6.43999 6.57998 5.87333 6.40665 5.44 6.05331L3.35333 4.38665C3.13999 4.21331 3.1 3.89998 3.27333 3.68665C3.44666 3.47331 3.76 3.43332 3.97333 3.60665L6.05999 5.27332C6.56666 5.67998 7.42666 5.67998 7.93332 5.27332L10.02 3.60665C10.2333 3.43332 10.5533 3.46665 10.72 3.68665C10.8933 3.89998 10.86 4.21998 10.64 4.38665L8.55333 6.05331C8.12666 6.40665 7.55999 6.57998 6.99999 6.57998Z" fill="#667789"/>
</svg>
