<svg width="12" height="11" viewBox="0 0 12 11" fill="none" xmlns="http://www.w3.org/2000/svg">
<path d="M5.36834 0.463525C5.51802 0.0028693 6.16972 0.00287002 6.3194 0.463525L7.30321 3.49139C7.37015 3.6974 7.56213 3.83688 7.77874 3.83688H10.9624C11.4468 3.83688 11.6482 4.45669 11.2563 4.74139L8.68066 6.61271C8.50542 6.74003 8.43209 6.96572 8.49903 7.17173L9.48284 10.1996C9.63252 10.6602 9.10528 11.0433 8.71342 10.7586L6.13776 8.88729C5.96252 8.75997 5.72522 8.75997 5.54998 8.88729L2.97432 10.7586C2.58247 11.0433 2.05523 10.6602 2.2049 10.1996L3.18872 7.17173C3.25565 6.96572 3.18232 6.74003 3.00708 6.61271L0.431425 4.74139C0.0395679 4.45669 0.240956 3.83688 0.725318 3.83688H3.909C4.12562 3.83688 4.31759 3.6974 4.38453 3.49139L5.36834 0.463525Z" fill="#EB9100"/>
</svg>
