<svg width="14" height="14" viewBox="0 0 14 14" fill="none" xmlns="http://www.w3.org/2000/svg">
<path fill-rule="evenodd" clip-rule="evenodd" d="M8.11707 12.1949C7.74977 12.2724 7.37539 12.3114 7 12.3112C4.03493 12.3112 1.62791 9.90413 1.62791 6.93906C1.62791 6.49009 1.26326 6.12511 0.813954 6.12511C0.364651 6.12511 0 6.49009 0 6.93906C0 10.8027 3.13665 13.9391 7 13.9391C7.49847 13.9391 7.98488 13.887 8.45405 13.7877C8.6605 13.7383 8.83952 13.6103 8.95297 13.4309C9.06641 13.2515 9.1053 13.0348 9.06137 12.8272C9.01743 12.6195 8.89413 12.4372 8.71774 12.3191C8.54136 12.201 8.32582 12.1564 8.11707 12.1949ZM7.75698 1.62004C10.3642 1.98795 12.3721 4.2312 12.3721 6.93906C12.3721 8.85478 11.367 10.5377 9.856 11.4891C9.67528 11.605 9.54767 11.7876 9.50097 11.9971C9.45426 12.2067 9.49224 12.4262 9.60664 12.6079C9.72103 12.7896 9.90257 12.9187 10.1117 12.9672C10.3209 13.0156 10.5407 12.9795 10.7233 12.8666C12.6915 11.6271 14 9.43464 14 6.93906C14 3.41009 11.3823 0.487667 7.98456 0.00808548C7.53981 -0.0547517 7.12763 0.255527 7.06479 0.700271C7.00195 1.14502 7.31223 1.5572 7.75698 1.62004Z" fill="#60A812"/>
<path fill-rule="evenodd" clip-rule="evenodd" d="M2.0143 4.93514C2.30096 4.22563 2.73528 3.58522 3.28843 3.05644C3.84157 2.52766 4.50088 2.1226 5.22258 1.86816C5.42627 1.79667 5.59323 1.64718 5.68671 1.45259C5.78019 1.25799 5.79254 1.03423 5.72104 0.830536C5.64954 0.626837 5.50006 0.459884 5.30546 0.366403C5.11087 0.272923 4.88711 0.260573 4.68341 0.332071C3.74335 0.66349 2.88454 1.1911 2.164 1.87986C1.44347 2.56862 0.877698 3.40278 0.50425 4.32695C0.4236 4.5272 0.4258 4.75128 0.510365 4.9499C0.594931 5.14853 0.754936 5.30542 0.955181 5.38607C1.15543 5.46672 1.37951 5.46452 1.57813 5.37996C1.77675 5.29539 1.93365 5.13539 2.0143 4.93514Z" fill="#BFDCA0"/>
</svg>
