<svg width="34" height="34" viewBox="0 0 34 34" fill="none" xmlns="http://www.w3.org/2000/svg">
<path opacity="0.4" d="M17.0012 31.1666C23.7847 31.1666 29.2837 25.6675 29.2837 18.8841C29.2837 12.1006 23.7847 6.60156 17.0012 6.60156C10.2178 6.60156 4.71875 12.1006 4.71875 18.8841C4.71875 25.6675 10.2178 31.1666 17.0012 31.1666Z" fill="#667789"/>
<path d="M17 19.4793C16.4192 19.4793 15.9375 18.9977 15.9375 18.4168V11.3335C15.9375 10.7527 16.4192 10.271 17 10.271C17.5808 10.271 18.0625 10.7527 18.0625 11.3335V18.4168C18.0625 18.9977 17.5808 19.4793 17 19.4793Z" fill="#667789"/>
<path d="M21.0951 4.88766H12.9067C12.3401 4.88766 11.8867 4.43433 11.8867 3.86766C11.8867 3.301 12.3401 2.8335 12.9067 2.8335H21.0951C21.6617 2.8335 22.1151 3.28683 22.1151 3.8535C22.1151 4.42016 21.6617 4.88766 21.0951 4.88766Z" fill="#667789"/>
</svg>
