<svg width="12" height="12" viewBox="0 0 12 12" fill="none" xmlns="http://www.w3.org/2000/svg">
<path d="M10.5368 2.615C9.73179 2.535 8.92679 2.475 8.11679 2.43V2.425L8.00679 1.775C7.93179 1.315 7.82179 0.625 6.65179 0.625H5.34179C4.17679 0.625 4.06679 1.285 3.98679 1.77L3.88179 2.41C3.41679 2.44 2.95179 2.47 2.48679 2.515L1.46679 2.615C1.25679 2.635 1.10679 2.82 1.12679 3.025C1.14679 3.23 1.32679 3.38 1.53679 3.36L2.55679 3.26C5.17679 3 7.81679 3.1 10.4668 3.365C10.4818 3.365 10.4918 3.365 10.5068 3.365C10.6968 3.365 10.8618 3.22 10.8818 3.025C10.8968 2.82 10.7468 2.635 10.5368 2.615Z" fill="#667789"/>
<path opacity="0.3991" d="M9.61585 4.07C9.49585 3.945 9.33085 3.875 9.16085 3.875H2.84085C2.67085 3.875 2.50085 3.945 2.38585 4.07C2.27085 4.195 2.20585 4.365 2.21585 4.54L2.52585 9.67C2.58085 10.43 2.65085 11.38 4.39585 11.38H7.60585C9.35085 11.38 9.42085 10.435 9.47585 9.67L9.78585 4.545C9.79585 4.365 9.73085 4.195 9.61585 4.07Z" fill="#667789"/>
<path fill-rule="evenodd" clip-rule="evenodd" d="M4.78906 8.5C4.78906 8.29289 4.95696 8.125 5.16406 8.125H6.82906C7.03617 8.125 7.20406 8.29289 7.20406 8.5C7.20406 8.70711 7.03617 8.875 6.82906 8.875H5.16406C4.95696 8.875 4.78906 8.70711 4.78906 8.5Z" fill="#667789"/>
<path fill-rule="evenodd" clip-rule="evenodd" d="M4.375 6.5C4.375 6.29289 4.54289 6.125 4.75 6.125H7.25C7.45711 6.125 7.625 6.29289 7.625 6.5C7.625 6.70711 7.45711 6.875 7.25 6.875H4.75C4.54289 6.875 4.375 6.70711 4.375 6.5Z" fill="#667789"/>
</svg>
