<svg width="7" height="9" viewBox="0 0 7 9" fill="none" xmlns="http://www.w3.org/2000/svg">
<path d="M4.2 2.62527V0.172493C4.52377 0.303488 4.81785 0.506721 5.06275 0.768718L6.28215 2.07591C6.52697 2.33798 6.71681 2.65298 6.839 2.99988H4.55C4.3568 2.99988 4.2 2.83188 4.2 2.62527ZM6.9916 3.75022H4.55C3.9711 3.75022 3.5 3.24549 3.5 2.62527V0.00899962C3.44365 0.0048748 3.3873 0 3.33025 0H1.75C1.28601 0.000694628 0.841214 0.198505 0.513156 0.550052C0.185097 0.901598 0.000555558 1.37818 0 1.8753V7.12508C0 8.15891 0.78505 9 1.75 9H5.25C6.21495 9 7 8.15891 7 7.12508V3.93209C7 3.87096 6.99545 3.81059 6.9916 3.75022ZM4.79745 6.33011C4.76502 6.36505 4.72646 6.39278 4.684 6.41171C4.64153 6.43063 4.59599 6.44037 4.55 6.44037C4.50401 6.44037 4.45847 6.43063 4.416 6.41171C4.37354 6.39278 4.33498 6.36505 4.30255 6.33011L3.85 5.84526V7.49444C3.85 7.59389 3.81312 7.68927 3.74749 7.75959C3.68185 7.82992 3.59283 7.86942 3.5 7.86942C3.40717 7.86942 3.31815 7.82992 3.25251 7.75959C3.18687 7.68927 3.15 7.59389 3.15 7.49444V5.84526L2.69745 6.33011C2.66495 6.36493 2.62638 6.39254 2.58392 6.41139C2.54146 6.43023 2.49596 6.43993 2.45 6.43993C2.40404 6.43993 2.35854 6.43023 2.31608 6.41139C2.27362 6.39254 2.23505 6.36493 2.20255 6.33011C2.17005 6.2953 2.14428 6.25396 2.12669 6.20848C2.1091 6.16299 2.10005 6.11423 2.10005 6.065C2.10005 6.01576 2.1091 5.96701 2.12669 5.92152C2.14428 5.87603 2.17005 5.8347 2.20255 5.79988L2.76745 5.19466C2.96198 4.98685 3.22547 4.87016 3.50017 4.87016C3.77488 4.87016 4.03837 4.98685 4.2329 5.19466L4.7978 5.79988C4.83033 5.83468 4.85614 5.876 4.87375 5.92149C4.89136 5.96698 4.90042 6.01575 4.90042 6.065C4.90042 6.11425 4.89136 6.16301 4.87375 6.2085C4.85614 6.25399 4.83033 6.29532 4.7978 6.33011H4.79745Z" fill="white"/>
</svg>
