<svg width="20" height="20" viewBox="0 0 20 20" fill="none" xmlns="http://www.w3.org/2000/svg">
<path opacity="0.4" d="M18.3346 6.50817V13.4915C18.3346 15.8332 17.2596 17.4415 15.368 18.0498C14.818 18.2415 14.1846 18.3332 13.493 18.3332H6.50963C5.81797 18.3332 5.18463 18.2415 4.63463 18.0498C2.74297 17.4415 1.66797 15.8332 1.66797 13.4915V6.50817C1.66797 3.47484 3.4763 1.6665 6.50963 1.6665H13.493C16.5263 1.6665 18.3346 3.47484 18.3346 6.50817Z" fill="#048DC3"/>
<path d="M15.3661 18.0499C14.8161 18.2416 14.1828 18.3333 13.4911 18.3333H6.50781C5.81615 18.3333 5.18281 18.2416 4.63281 18.0499C4.92448 15.8499 7.22448 14.1416 9.99948 14.1416C12.7745 14.1416 15.0745 15.8499 15.3661 18.0499Z" fill="#048DC3"/>
<path d="M12.9842 9.64985C12.9842 11.2999 11.6509 12.6415 10.0009 12.6415C8.35091 12.6415 7.01758 11.2999 7.01758 9.64985C7.01758 7.99985 8.35091 6.6665 10.0009 6.6665C11.6509 6.6665 12.9842 7.99985 12.9842 9.64985Z" fill="#048DC3"/>
</svg>
