<svg width="46" height="46" viewBox="0 0 46 46" fill="none" xmlns="http://www.w3.org/2000/svg">
<path d="M34.5007 24.9165C32.699 24.9165 31.0315 25.549 29.709 26.6032C27.9457 28.0023 26.834 30.1682 26.834 32.5832C26.834 34.0207 27.2365 35.3815 27.9456 36.5315C29.2681 38.7548 31.7023 40.2498 34.5007 40.2498C36.4365 40.2498 38.1998 39.5407 39.5415 38.3332C40.1357 37.8348 40.6532 37.2215 41.0557 36.5315C41.7648 35.3815 42.1673 34.0207 42.1673 32.5832C42.1673 28.3473 38.7365 24.9165 34.5007 24.9165ZM38.4682 31.759L34.3857 35.5348C34.1173 35.784 33.7531 35.9182 33.4081 35.9182C33.044 35.9182 32.6798 35.784 32.3923 35.4965L30.4948 33.5991C29.939 33.0432 29.939 32.1231 30.4948 31.5673C31.0507 31.0114 31.9707 31.0114 32.5265 31.5673L33.4465 32.4874L36.5131 29.6506C37.0881 29.1139 38.0081 29.1524 38.5448 29.7274C39.0815 30.3024 39.0432 31.2032 38.4682 31.759Z" fill="#8EBA58"/>
<path opacity="0.4" d="M40.4231 41.2085C40.4231 41.7452 40.0014 42.1668 39.4648 42.1668H6.53646C5.99979 42.1668 5.57812 41.7452 5.57812 41.2085C5.57812 33.2735 13.3981 26.8335 23.0006 26.8335C24.9748 26.8335 26.8915 27.1018 28.6548 27.6193C27.524 28.9609 26.834 30.7052 26.834 32.5835C26.834 34.021 27.2364 35.3818 27.9456 36.5318C28.3289 37.1835 28.8273 37.7776 29.4023 38.2759C30.7439 39.5026 32.5265 40.2502 34.5006 40.2502C36.6473 40.2502 38.5831 39.3685 39.9631 37.9501C40.2698 38.9851 40.4231 40.0777 40.4231 41.2085Z" fill="#8EBA58"/>
<path d="M22.9993 23.0002C28.2921 23.0002 32.5827 18.7096 32.5827 13.4168C32.5827 8.1241 28.2921 3.8335 22.9993 3.8335C17.7066 3.8335 13.416 8.1241 13.416 13.4168C13.416 18.7096 17.7066 23.0002 22.9993 23.0002Z" fill="#8EBA58"/>
</svg>
