<svg width="19" height="19" viewBox="0 0 19 19" fill="none" xmlns="http://www.w3.org/2000/svg">
<path opacity="0.4" d="M10.2917 2.57275H5.54167C2.83417 2.57275 1.78125 3.62567 1.78125 6.33317V12.6665C1.78125 14.4873 2.77083 16.4269 5.54167 16.4269H10.2917C12.9992 16.4269 14.0521 15.374 14.0521 12.6665V6.33317C14.0521 3.62567 12.9992 2.57275 10.2917 2.57275Z" fill="#667789"/>
<path d="M9.10552 9.00938C9.9275 9.00938 10.5939 8.34303 10.5939 7.52105C10.5939 6.69906 9.9275 6.03271 9.10552 6.03271C8.28354 6.03271 7.61719 6.69906 7.61719 7.52105C7.61719 8.34303 8.28354 9.00938 9.10552 9.00938Z" fill="#667789"/>
<path d="M17.1385 4.88469C16.8139 4.71844 16.1331 4.52844 15.2068 5.17761L14.0352 6.00094C14.0431 6.11177 14.051 6.21469 14.051 6.33344V12.6668C14.051 12.7855 14.0352 12.8884 14.0352 12.9993L15.2068 13.8226C15.6977 14.1709 16.1252 14.2818 16.4656 14.2818C16.7585 14.2818 16.9881 14.2026 17.1385 14.1234C17.4631 13.9572 18.0093 13.5059 18.0093 12.3739V6.63427C18.0093 5.50219 17.4631 5.05094 17.1385 4.88469Z" fill="#667789"/>
</svg>
