<svg width="20" height="20" viewBox="0 0 20 20" fill="none" xmlns="http://www.w3.org/2000/svg">
<path opacity="0.8" d="M10.7487 2.10024L10.7237 2.15857L8.30703 7.7669H5.93203C5.36536 7.7669 4.83203 7.87524 4.33203 8.0919L5.79036 4.60857L5.8237 4.53357L5.8737 4.40024C5.8987 4.3419 5.91536 4.2919 5.94036 4.25024C7.03203 1.72524 8.26536 1.15024 10.7487 2.10024Z" fill="#048DC3"/>
<path d="M15.2419 7.93343C14.8669 7.8251 14.4753 7.76676 14.0669 7.76676H8.30859L10.7253 2.15843L10.7503 2.1001C10.8669 2.14176 10.9919 2.2001 11.1169 2.24176L12.9586 3.01676C13.9836 3.44176 14.7003 3.88343 15.1419 4.41676C15.2169 4.51676 15.2836 4.60843 15.3503 4.71676C15.4253 4.83343 15.4836 4.9501 15.5169 5.0751C15.5503 5.1501 15.5753 5.21676 15.5919 5.29176C15.8086 6.0001 15.6753 6.85843 15.2419 7.93343Z" fill="#048DC3"/>
<path opacity="0.4" d="M18.1339 11.8333V13.4583C18.1339 13.6249 18.1255 13.7916 18.1172 13.9499C17.9589 16.8666 16.3339 18.3333 13.2505 18.3333H6.75052C6.54219 18.3333 6.35052 18.3166 6.15885 18.2916C3.50885 18.1166 2.09219 16.6999 1.90885 14.0499C1.88385 13.8499 1.86719 13.6583 1.86719 13.4583V11.8333C1.86719 10.1583 2.88385 8.7166 4.33385 8.0916C4.83385 7.87494 5.36719 7.7666 5.93385 7.7666H14.0672C14.4755 7.7666 14.8672 7.82494 15.2422 7.93327C16.9089 8.4416 18.1339 9.9916 18.1339 11.8333Z" fill="#048DC3"/>
<path opacity="0.6" d="M5.79219 4.6084L4.33385 8.09173C2.88385 8.71673 1.86719 10.1584 1.86719 11.8334V9.39173C1.86719 7.02507 3.55052 5.05007 5.79219 4.6084Z" fill="#048DC3"/>
<path opacity="0.6" d="M18.1339 9.39186V11.8335C18.1339 9.99186 16.9089 8.44186 15.2422 7.93353C15.6755 6.85853 15.8089 6.0002 15.5922 5.29186C15.5755 5.21686 15.5505 5.1502 15.5172 5.0752C17.0755 5.88353 18.1339 7.5252 18.1339 9.39186Z" fill="#048DC3"/>
<path d="M12.0846 13.9585H7.91797C7.5763 13.9585 7.29297 13.6752 7.29297 13.3335C7.29297 12.9918 7.5763 12.7085 7.91797 12.7085H12.0846C12.4263 12.7085 12.7096 12.9918 12.7096 13.3335C12.7096 13.6752 12.4263 13.9585 12.0846 13.9585Z" fill="#048DC3"/>
</svg>
