<svg width="38" height="38" viewBox="0 0 38 38" fill="none" xmlns="http://www.w3.org/2000/svg">
<path opacity="0.4" d="M29.074 21.8413C28.304 22.593 27.864 23.6747 27.974 24.8297C28.139 26.8097 29.954 28.258 31.934 28.258H35.4173V30.4397C35.4173 34.2347 32.319 37.333 28.524 37.333H7.47732C3.68232 37.333 0.583984 34.2347 0.583984 30.4397V18.1014C0.583984 14.3064 3.68232 11.208 7.47732 11.208H28.524C32.319 11.208 35.4173 14.3064 35.4173 18.1014V20.7414H31.714C30.6873 20.7414 29.7523 21.1447 29.074 21.8413Z" fill="#048DC3"/>
<path d="M23.2257 4.24067V11.2073H7.47732C3.68232 11.2073 0.583984 14.3057 0.583984 18.1007V11.3724C0.583984 9.1907 1.92232 7.24728 3.95732 6.47728L18.514 0.977285C20.7873 0.133952 23.2257 1.80234 23.2257 4.24067Z" fill="#048DC3"/>
<path d="M37.3604 22.6121V26.3889C37.3604 27.3972 36.5538 28.2221 35.5271 28.2588H31.9338C29.9538 28.2588 28.1388 26.8105 27.9738 24.8305C27.8638 23.6755 28.3038 22.5938 29.0738 21.8421C29.7521 21.1455 30.6871 20.7422 31.7138 20.7422H35.5271C36.5538 20.7789 37.3604 21.6038 37.3604 22.6121Z" fill="#048DC3"/>
<path d="M21.6654 20.375H8.83203C8.08036 20.375 7.45703 19.7517 7.45703 19C7.45703 18.2483 8.08036 17.625 8.83203 17.625H21.6654C22.417 17.625 23.0404 18.2483 23.0404 19C23.0404 19.7517 22.417 20.375 21.6654 20.375Z" fill="#048DC3"/>
</svg>
