<svg width="44" height="44" viewBox="0 0 44 44" fill="none" xmlns="http://www.w3.org/2000/svg">
<path d="M9.16732 27.5C7.44398 27.5 5.84898 28.105 4.58398 29.1133C2.89732 30.4517 1.83398 32.5233 1.83398 34.8333C1.83398 38.885 5.11565 42.1667 9.16732 42.1667C11.019 42.1667 12.7057 41.47 14.0073 40.3333C15.529 38.995 16.5007 37.0333 16.5007 34.8333C16.5007 30.7817 13.219 27.5 9.16732 27.5ZM11.0007 35.2917C11.0007 35.7683 10.744 36.2267 10.3407 36.465L8.04898 37.84C7.82898 37.9684 7.59065 38.0417 7.33398 38.0417C6.87565 38.0417 6.41732 37.8034 6.16065 37.3817C5.77565 36.7217 5.97731 35.8783 6.63731 35.4933L8.26897 34.5217V32.5417C8.26897 31.79 8.89231 31.1667 9.64397 31.1667C10.3956 31.1667 11.019 31.79 11.019 32.5417V35.2917H11.0007Z" fill="#EBBC71"/>
<path opacity="0.4" d="M35.714 23.7414H39.4173V21.1014C39.4173 17.3064 36.319 14.208 32.524 14.208H11.4773C7.68231 14.208 4.58398 17.3064 4.58398 21.1014V29.113C5.84898 28.1047 7.44398 27.4997 9.16732 27.4997C13.219 27.4997 16.5007 30.7813 16.5007 34.833C16.5007 36.208 16.1156 37.5097 15.4373 38.6097C15.0523 39.2697 14.5573 39.8563 13.989 40.333H32.524C36.319 40.333 39.4173 37.2347 39.4173 33.4397V31.258H35.934C33.954 31.258 32.139 29.8097 31.974 27.8297C31.864 26.6747 32.304 25.593 33.074 24.8413C33.7523 24.1447 34.6873 23.7414 35.714 23.7414Z" fill="#EBBC71"/>
<path d="M27.2257 7.24165V14.2083H11.4773C7.68231 14.2083 4.58398 17.3066 4.58398 21.1016V14.3733C4.58398 12.1917 5.92231 10.2483 7.95731 9.47826L22.514 3.97826C24.7873 3.13493 27.2257 4.80332 27.2257 7.24165Z" fill="#EBBC71"/>
<path d="M41.3604 25.6111V29.3879C41.3604 30.3962 40.5537 31.2212 39.5271 31.2578H35.9338C33.9538 31.2578 32.1388 29.8095 31.9738 27.8295C31.8638 26.6745 32.3037 25.5928 33.0737 24.8412C33.7521 24.1445 34.6871 23.7412 35.7137 23.7412H39.5271C40.5537 23.7779 41.3604 24.6028 41.3604 25.6111Z" fill="#EBBC71"/>
<path d="M25.6673 23.375H12.834C12.0823 23.375 11.459 22.7517 11.459 22C11.459 21.2483 12.0823 20.625 12.834 20.625H25.6673C26.419 20.625 27.0423 21.2483 27.0423 22C27.0423 22.7517 26.419 23.375 25.6673 23.375Z" fill="#EBBC71"/>
</svg>
