<svg width="44" height="44" viewBox="0 0 44 44" fill="none" xmlns="http://www.w3.org/2000/svg">
<path d="M9.16732 27.5C5.11565 27.5 1.83398 30.7817 1.83398 34.8333C1.83398 36.2083 2.21899 37.51 2.89732 38.61C4.16232 40.7367 6.49065 42.1667 9.16732 42.1667C11.844 42.1667 14.1723 40.7367 15.4373 38.61C16.1156 37.51 16.5007 36.2083 16.5007 34.8333C16.5007 30.7817 13.219 27.5 9.16732 27.5ZM12.779 34.2283L8.87398 37.84C8.61732 38.0784 8.26899 38.2067 7.93899 38.2067C7.59065 38.2067 7.24232 38.0783 6.96732 37.8033L5.15232 35.9883C4.62065 35.4567 4.62065 34.5767 5.15232 34.045C5.68399 33.5133 6.56398 33.5133 7.09565 34.045L7.97565 34.925L10.909 32.2117C11.459 31.6983 12.339 31.735 12.8523 32.285C13.3656 32.835 13.329 33.715 12.779 34.2283Z" fill="#8EBA58"/>
<path d="M32.541 12.9253C32.101 12.8519 31.6427 12.8336 31.166 12.8336H12.8327C12.3193 12.8336 11.8243 12.8703 11.3477 12.9436C11.6043 12.4303 11.971 11.9537 12.411 11.5137L18.3693 5.53699C20.881 3.04366 24.951 3.04366 27.4627 5.53699L30.671 8.78192C31.8443 9.93692 32.4677 11.4036 32.541 12.9253Z" fill="#8EBA58"/>
<path opacity="0.4" d="M40.3327 21.9997V31.1663C40.3327 36.6663 36.666 40.333 31.166 40.333H13.9877C14.556 39.8563 15.051 39.2697 15.436 38.6097C16.1143 37.5097 16.4993 36.208 16.4993 34.833C16.4993 30.7813 13.2177 27.4997 9.16602 27.4997C6.96602 27.4997 5.00435 28.4713 3.66602 29.993V21.9997C3.66602 17.013 6.67268 13.5297 11.3477 12.943C11.8243 12.8697 12.3193 12.833 12.8327 12.833H31.166C31.6427 12.833 32.101 12.8513 32.541 12.9247C37.271 13.4747 40.3327 16.9763 40.3327 21.9997Z" fill="#8EBA58"/>
<path d="M40.3327 22.917H34.8327C32.816 22.917 31.166 24.567 31.166 26.5837C31.166 28.6003 32.816 30.2503 34.8327 30.2503H40.3327" fill="#8EBA58"/>
</svg>
